<?xml version="1.0" encoding="utf-8" ?><svg xmlns="http://www.w3.org/2000/svg" xmlns:xlink="http://www.w3.org/1999/xlink" width="1616" height="1686" viewBox="0 0 1616 1686"><clipPath id="cl_5"><rect x="-4.5776367e-05" y="-4.5776367e-05" width="1615.9998" height="1685.9999"/></clipPath><g clip-path="url(#cl_5)"><path fill="#082D46" transform="matrix(1.00811 0 0 1.00777 -221.784 -182.406)" d="M236.176 945.699C253.592 810.179 294.006 683.696 371.182 570.052C488.737 393.758 672.184 272.078 880.318 232.341C1084.94 193.924 1296.44 238.742 1467.89 356.855C1493.99 374.743 1514.01 391.596 1537.58 412.218C1675.8 532.951 1768.84 697.122 1801.39 877.743C1802.9 886.748 1805.72 901.03 1806.15 909.753C1808.37 918.484 1809.89 934.215 1810.93 943.474C1817.06 998.22 1816.6 1053.49 1810.76 1108.25C1810.19 1113.63 1808.31 1135.12 1806.77 1139.85C1804.83 1154.77 1802.26 1169.59 1799.07 1184.29C1778.87 1292.88 1734.05 1395.66 1673.32 1487.53C1658.76 1509.55 1638.7 1538.62 1620.89 1558.26L1618.48 1561.32C1605.47 1578.36 1569.15 1614.94 1553.13 1629.84C1403.73 1768.68 1209.32 1849.03 1004.91 1842.99C795.947 1835.61 598.618 1744.95 456.886 1591.22C306.732 1429.8 226.451 1215.58 233.532 995.231C233.704 978.907 235.258 962.098 236.176 945.699Z"/><path fill="#073C5F" transform="matrix(1.00811 0 0 1.00777 -221.784 -182.406)" d="M587.921 472.986C633.006 473.564 678.9 472.429 724.298 472.992C743.917 473.235 785.955 473.822 804.194 471.262C811.803 470.194 852.566 449.14 863.069 443.993L955.696 399.275L1025.79 364.484C1032.01 361.428 1061.59 345.676 1066.74 348.49C1072.99 351.091 1079.01 353.776 1085.52 355.614C1083.76 370.892 1084.84 388.365 1084.53 403.835C1083.83 438.519 1085.95 474.433 1085.4 508.982L1166.95 508.948C1181.94 508.942 1203.96 508.236 1218.18 510.14C1208.12 511.712 1181.19 510.989 1170.01 510.929C1141.68 510.703 1113.36 510.711 1085.04 510.954L1085.17 797.54C1085.19 844.394 1086.08 894.031 1085.2 940.687C1114.7 927.368 1145.24 911.867 1174.34 897.523C1183.78 891.303 1208.71 879.93 1219.38 876.994L1219.4 921.783C1219.05 929.245 1218.91 936.715 1219 944.185C1219.04 952.618 1218.89 961.869 1219.21 970.227C1220.76 976.789 1219.86 985.48 1219 992.131L1218.91 992.769C1219.69 1071.89 1219.76 1151.01 1219.1 1230.13C1219.09 1282.37 1220.26 1339.36 1218.9 1391.18C1205.22 1392.46 1180.51 1392.8 1166.49 1392.63C1142.33 1392.32 1108.75 1393.54 1085.14 1391.15C1085.08 1414.46 1084.41 1441.25 1085.17 1464.29C1084.87 1486.35 1085.34 1508.24 1085.08 1530.17C1081.62 1531.38 1064.92 1537.87 1063.07 1537.84C1057.35 1536.18 1046.29 1530.9 1040 1528.5C1018.34 1520.25 995.614 1509.74 973.72 1502.48C976.434 1504.48 981.46 1507.24 982.486 1509.54C969.563 1510 953.597 1510 940.633 1511.32C939.076 1511.48 935.464 1514.08 933.99 1515.12L931.607 1515.17L930.454 1512.58C922.359 1513.18 913.983 1513.51 906.024 1515.14C896.732 1517.04 862.488 1529.42 857.262 1527.65C856.637 1527.44 856.006 1527.24 855.383 1527.03C854.887 1526.85 854.399 1526.66 853.906 1526.48L852.322 1527.17C849.958 1525.71 836.606 1513.95 833.643 1511.31C819.356 1498.56 803.595 1485.61 789.908 1472.35C780.079 1465.17 763.779 1449.78 754.259 1441.29C750.722 1439.32 748.305 1436.28 745.489 1433.3C730.088 1422.04 713.593 1406.17 698.816 1393.47C691.017 1389.34 604.575 1391.84 588.182 1391.98C586.812 1286.99 587.967 1179.63 587.962 1074.44L587.921 472.986Z"/><path fill="#10EFF7" transform="matrix(1.00811 0 0 1.00777 -221.784 -182.406)" d="M1127.03 1056.34C1130.05 1055.18 1149.41 1040.53 1153.47 1037.77C1174.5 1023.43 1197.14 1005.5 1218.91 992.769C1219.69 1071.89 1219.76 1151.01 1219.1 1230.13C1219.09 1282.37 1220.26 1339.36 1218.9 1391.18C1205.22 1392.46 1180.51 1392.8 1166.49 1392.63C1142.33 1392.32 1108.75 1393.54 1085.14 1391.15L1084.93 1097.11C1085.25 1095 1085.83 1090.17 1086.89 1088.8C1096.17 1076.77 1114.27 1067.65 1125.53 1057.69L1127.03 1056.34Z"/><path fill="#0D6486" transform="matrix(1.00811 0 0 1.00777 -221.784 -182.406)" d="M1063.07 1537.84C1063.34 1537.07 1062.09 1424.36 1062.15 1416.27L1062.79 645.661L1062.64 464.163C1062.53 426.894 1061.89 388.692 1062.46 351.525C1064.17 348.479 1062.91 349.607 1066.74 348.49C1072.99 351.091 1079.01 353.776 1085.52 355.614C1083.76 370.892 1084.84 388.365 1084.53 403.835C1083.83 438.519 1085.95 474.433 1085.4 508.982L1166.95 508.948C1181.94 508.942 1203.96 508.236 1218.18 510.14C1208.12 511.712 1181.19 510.989 1170.01 510.929C1141.68 510.703 1113.36 510.711 1085.04 510.954L1085.17 797.54C1085.19 844.394 1086.08 894.031 1085.2 940.687C1114.7 927.368 1145.24 911.867 1174.34 897.523C1183.78 891.303 1208.71 879.93 1219.38 876.994L1219.4 921.783C1219.05 929.245 1218.91 936.715 1219 944.185C1219.04 952.618 1218.89 961.869 1219.21 970.227C1220.76 976.789 1219.86 985.48 1219 992.131L1218.91 992.769C1197.14 1005.5 1174.5 1023.43 1153.47 1037.77C1149.41 1040.53 1130.05 1055.18 1127.03 1056.34L1125.53 1057.69C1114.27 1067.65 1096.17 1076.77 1086.89 1088.8C1085.83 1090.17 1085.25 1095 1084.93 1097.11L1085.14 1391.15C1085.08 1414.46 1084.41 1441.25 1085.17 1464.29C1084.87 1486.35 1085.34 1508.24 1085.08 1530.17C1081.62 1531.38 1064.92 1537.87 1063.07 1537.84Z"/><defs><linearGradient id="gradient_0" gradientUnits="userSpaceOnUse" x1="1071.902" y1="987.27051" x2="1180.5588" y2="920.9325"><stop offset="0" stop-color="#7DE6EE"/><stop offset="1" stop-color="#D6FBF5"/></linearGradient></defs><path fill="url(#gradient_0)" transform="matrix(1.00811 0 0 1.00777 -221.784 -182.406)" d="M1174.34 897.523C1183.78 891.303 1208.71 879.93 1219.38 876.994L1219.4 921.783C1219.05 929.245 1218.91 936.715 1219 944.185C1219.04 952.618 1218.89 961.869 1219.21 970.227C1220.76 976.789 1219.86 985.48 1219 992.131L1218.91 992.769C1197.14 1005.5 1174.5 1023.43 1153.47 1037.77C1149.41 1040.53 1130.05 1055.18 1127.03 1056.34L1127 1055.28C1129.13 1052.67 1133 1050.35 1135.91 1048.19C1136.97 1038.88 1127.06 1007.57 1125.21 995.224L1125.04 994.02C1119.75 997.102 1114.95 1000.48 1109.03 1001.66C1104.23 1003.39 1090.57 1013.34 1086.26 1016.53C1085.94 997.631 1087.15 976.311 1085.16 957.642C1084.91 952.887 1085.17 945.633 1085.2 940.687C1114.7 927.368 1145.24 911.867 1174.34 897.523Z"/><defs><linearGradient id="gradient_1" gradientUnits="userSpaceOnUse" x1="1127.6019" y1="1006.8418" x2="1224.9862" y2="983.89935"><stop offset="0" stop-color="#77E7ED"/><stop offset="1" stop-color="#D0F9F4"/></linearGradient></defs><path fill="url(#gradient_1)" transform="matrix(1.00811 0 0 1.00777 -221.784 -182.406)" d="M1203.16 946.105C1209.56 945.16 1208.68 945.852 1215.41 949.088C1218.13 947.918 1217.4 947.812 1219 944.185C1219.04 952.618 1218.89 961.869 1219.21 970.227C1220.76 976.789 1219.86 985.48 1219 992.131L1218.91 992.769C1197.14 1005.5 1174.5 1023.43 1153.47 1037.77C1149.41 1040.53 1130.05 1055.18 1127.03 1056.34L1127 1055.28C1129.13 1052.67 1133 1050.35 1135.91 1048.19C1136.97 1038.88 1127.06 1007.57 1125.21 995.224L1125.04 994.02C1119.75 997.102 1114.95 1000.48 1109.03 1001.66C1117.88 995.397 1130.49 989.37 1139.98 983.777C1159.26 972.411 1185.28 958.963 1203.16 946.105Z"/><path fill="#D8F2F1" transform="matrix(1.00811 0 0 1.00777 -221.784 -182.406)" d="M1174.34 897.523C1183.78 891.303 1208.71 879.93 1219.38 876.994L1219.4 921.783C1219.05 929.245 1218.91 936.715 1219 944.185C1217.4 947.812 1218.13 947.918 1215.41 949.088C1208.68 945.852 1209.56 945.16 1203.16 946.105C1195.2 943.717 1193.54 952.73 1184.87 950.792C1177.22 938.971 1167.99 927.63 1161.69 915.193C1158.19 908.284 1169.82 908.036 1174.34 897.523Z"/><path fill="#80E9EB" transform="matrix(1.00811 0 0 1.00777 -221.784 -182.406)" d="M1085.16 957.642C1087.15 976.311 1085.94 997.631 1086.26 1016.53C1090.57 1013.34 1104.23 1003.39 1109.03 1001.66C1114.95 1000.48 1119.75 997.102 1125.04 994.02L1125.21 995.224C1127.06 1007.57 1136.97 1038.88 1135.91 1048.19C1133 1050.35 1129.13 1052.67 1127 1055.28L1127.03 1056.34L1125.53 1057.69C1114.27 1067.65 1096.17 1076.77 1086.89 1088.8C1085.83 1090.17 1085.25 1095 1084.93 1097.11C1083.97 1085.37 1084.44 1064.15 1084.4 1051.93C1084.3 1020.5 1084.55 989.067 1085.16 957.642Z"/><defs><linearGradient id="gradient_2" gradientUnits="userSpaceOnUse" x1="878.03735" y1="1443.1946" x2="895.99664" y2="1526.1116"><stop offset="0" stop-color="#5FE9E8"/><stop offset="1" stop-color="#B1F1EE"/></linearGradient></defs><path fill="url(#gradient_2)" transform="matrix(1.00811 0 0 1.00777 -221.784 -182.406)" d="M835.198 1446.42C863.492 1456.29 893.667 1470 921.798 1480.9C929.139 1483.75 968.908 1499.29 973.72 1502.48C976.434 1504.48 981.46 1507.24 982.486 1509.54C969.563 1510 953.597 1510 940.633 1511.32C939.076 1511.48 935.464 1514.08 933.99 1515.12L931.607 1515.17L930.454 1512.58C922.359 1513.18 913.983 1513.51 906.024 1515.14C896.732 1517.04 862.488 1529.42 857.262 1527.65C856.637 1527.44 856.006 1527.24 855.383 1527.03C854.887 1526.85 854.399 1526.66 853.906 1526.48L852.322 1527.17C849.958 1525.71 836.606 1513.95 833.643 1511.31C819.356 1498.56 803.595 1485.61 789.908 1472.35C795.044 1471.97 795.055 1473.75 798.599 1471.39L798.273 1468.87L798.532 1466.13L799.744 1467.05C806.399 1464.48 811.364 1464.08 818.359 1462.92C823.244 1462.11 823.519 1459.61 826.313 1455.51C832.127 1454.42 832.201 1460.19 838.762 1457.11C841.302 1453.46 841.035 1455.26 840.873 1451.75C838.69 1449.23 837.711 1448.48 835.198 1446.42Z"/><path fill="#10EFF7" transform="matrix(1.00811 0 0 1.00777 -221.784 -182.406)" d="M698.816 1393.47C706.377 1393.07 720.489 1399.46 727.75 1402.87C731.729 1404.47 735.837 1406.06 739.759 1407.77C763.853 1417.04 788.367 1426.21 812.031 1436.45C817.043 1438.62 830.94 1444.08 835.198 1446.42C837.711 1448.48 838.69 1449.23 840.873 1451.75C841.035 1455.26 841.302 1453.46 838.762 1457.11C832.201 1460.19 832.127 1454.42 826.313 1455.51C823.519 1459.61 823.244 1462.11 818.359 1462.92C811.364 1464.08 806.399 1464.48 799.744 1467.05L798.532 1466.13L798.273 1468.87L798.599 1471.39C795.055 1473.75 795.044 1471.97 789.908 1472.35C780.079 1465.17 763.779 1449.78 754.259 1441.29C750.722 1439.32 748.305 1436.28 745.489 1433.3C730.088 1422.04 713.593 1406.17 698.816 1393.47Z"/><path fill="#16C4D5" transform="matrix(1.00811 0 0 1.00777 -221.784 -182.406)" d="M698.816 1393.47C706.377 1393.07 720.489 1399.46 727.75 1402.87C723.54 1405.86 723.092 1405.06 722.042 1408.88C724.164 1412.97 728.304 1413.31 732.591 1414.38C738.305 1422.87 750.273 1431.39 759.072 1436.68C752.405 1437.32 749.73 1433.65 745.489 1433.3C730.088 1422.04 713.593 1406.17 698.816 1393.47Z"/><path fill="#10EFF7" transform="matrix(1.00811 0 0 1.00777 -221.784 -182.406)" d="M1027.3 968.572C1028.37 983.268 1027.36 1009.33 1004.61 1003.77C978.481 997.384 984.737 933.228 1017.07 943.307C1020.74 944.452 1022.26 949.181 1023.21 952.378C1024.86 957.763 1026.77 963 1027.3 968.572Z"/><path fill="#0D6486" transform="matrix(1.00811 0 0 1.00777 -221.784 -182.406)" d="M1027.3 968.572C1028.37 983.268 1027.36 1009.33 1004.61 1003.77C978.481 997.384 984.737 933.228 1017.07 943.307C1020.74 944.452 1022.26 949.181 1023.21 952.378C1007.57 940.398 1002.16 948.383 1000.21 965.107C999.005 975.517 1000.57 1001.45 1015.03 1000.5C1025.69 994.789 1026.76 979.333 1027.3 968.572Z"/><defs><linearGradient id="gradient_3" gradientUnits="userSpaceOnUse" x1="1217.3268" y1="1443.8156" x2="1251.5907" y2="1629.876"><stop offset="0" stop-color="#AEF3F0"/><stop offset="1" stop-color="#FFFEFA"/></linearGradient></defs><path fill="url(#gradient_3)" transform="matrix(1.00811 0 0 1.00777 -221.784 -182.406)" d="M1218.9 1391.18C1226.35 1392.7 1245.42 1393.14 1252.44 1390.7C1259.08 1392.67 1311.55 1416.45 1315.18 1419.47C1326.29 1423.42 1336.78 1429.03 1347.74 1433.48C1353.29 1436.24 1360.53 1440.11 1366.23 1442.02C1384.91 1452.12 1410.4 1462.05 1430.36 1471.15L1560.74 1530.83C1575.17 1537.38 1608.78 1551.23 1620.89 1558.26L1618.48 1561.32C1571.27 1568.1 1519.73 1579.98 1472.5 1588.71L1168.09 1646.38C1119.01 1656.1 1069.86 1665.46 1020.65 1674.46C1004.2 1658.98 986.896 1644.92 970.026 1629.98C931.167 1595.57 890.813 1561.91 852.322 1527.17L853.906 1526.48C854.399 1526.66 854.887 1526.85 855.383 1527.03C856.006 1527.24 856.637 1527.44 857.262 1527.65C862.488 1529.42 896.732 1517.04 906.024 1515.14C913.983 1513.51 922.359 1513.18 930.454 1512.58L931.607 1515.17L933.99 1515.12C935.464 1514.08 939.076 1511.48 940.633 1511.32C953.597 1510 969.563 1510 982.486 1509.54C981.46 1507.24 976.434 1504.48 973.72 1502.48C995.614 1509.74 1018.34 1520.25 1040 1528.5C1046.29 1530.9 1057.35 1536.18 1063.07 1537.84C1064.92 1537.87 1081.62 1531.38 1085.08 1530.17C1085.34 1508.24 1084.87 1486.35 1085.17 1464.29C1084.41 1441.25 1085.08 1414.46 1085.14 1391.15C1108.75 1393.54 1142.33 1392.32 1166.49 1392.63C1180.51 1392.8 1205.22 1392.46 1218.9 1391.18Z"/><path fill="#80E9EB" transform="matrix(1.00811 0 0 1.00777 -221.784 -182.406)" d="M1218.9 1391.18C1226.35 1392.7 1245.42 1393.14 1252.44 1390.7C1259.08 1392.67 1311.55 1416.45 1315.18 1419.47C1317.45 1425.4 1321.45 1422.84 1325.87 1428.07C1326.37 1431.78 1326.59 1429.91 1324.26 1433.72C1314.65 1438.28 1224.2 1451.83 1208.18 1454.58L1131.62 1467.71C1120.18 1469.68 1101.27 1473.49 1090.24 1474.48C1082.72 1469.27 1089.93 1457.22 1086.65 1451.65L1087 1449.11L1086.57 1450.09L1087.06 1450.35L1086.1 1451.95L1086.87 1453.11L1086.77 1454.67L1085.57 1454.87C1085.53 1457.82 1085.63 1461.43 1085.17 1464.29C1084.41 1441.25 1085.08 1414.46 1085.14 1391.15C1108.75 1393.54 1142.33 1392.32 1166.49 1392.63C1180.51 1392.8 1205.22 1392.46 1218.9 1391.18Z"/><path fill="#10EFF7" transform="matrix(1.00811 0 0 1.00777 -221.784 -182.406)" d="M1218.18 510.14C1221.01 517.624 1219.74 778.169 1219.19 807.551C1234.58 803.973 1250.59 800.047 1266.1 797.367C1293.84 789.539 1332.29 783.135 1361.28 776.186C1379.38 771.849 1422.69 761.132 1439.69 759.003C1444.98 758.736 1454.92 757.375 1458.66 761.554C1458.21 769.031 1443.05 772.93 1438.16 776.98C1409.41 788.864 1379.37 803.127 1351.09 816.195L1219.38 876.994C1208.71 879.93 1183.78 891.303 1174.34 897.523C1145.24 911.867 1114.7 927.368 1085.2 940.687C1086.08 894.031 1085.19 844.394 1085.17 797.54L1085.04 510.954C1113.36 510.711 1141.68 510.703 1170.01 510.929C1181.19 510.989 1208.12 511.712 1218.18 510.14Z"/><path fill="#10EFF7" transform="matrix(1.00811 0 0 1.00777 -221.784 -182.406)" d="M1443.57 785.621C1455.4 780.367 1478.26 760.031 1490.21 763.242C1492.79 765.757 1491.98 765.06 1492.76 769.381C1459.34 811.981 1426.17 854.789 1393.28 897.801C1375.01 921.489 1355.78 945.077 1338.35 969.394L1298.1 935.735L1285.43 925.189C1275.61 931.891 1264.94 938.841 1255.68 946.204C1252.54 948.152 1246.87 951.924 1243.79 953.48C1238.92 957.318 1224.69 968.449 1219.21 970.227C1218.89 961.869 1219.04 952.618 1219 944.185C1218.91 936.715 1219.05 929.245 1219.4 921.783L1219.38 876.994L1351.09 816.195C1379.37 803.127 1409.41 788.864 1438.16 776.98C1442.56 776.978 1442.02 776.331 1445.31 778.22C1445.77 781.973 1445.22 781.563 1443.57 785.621Z"/><path fill="#1AA3CE" transform="matrix(1.00811 0 0 1.00777 -221.784 -182.406)" d="M1438.16 776.98C1442.56 776.978 1442.02 776.331 1445.31 778.22C1445.77 781.973 1445.22 781.563 1443.57 785.621C1413.36 802.544 1376.7 827.682 1346.09 846.357L1288.01 881.404C1280.05 886.207 1262.47 896.237 1256.07 902.074C1265.38 909.457 1275.95 918.256 1285.43 925.189C1275.61 931.891 1264.94 938.841 1255.68 946.204C1252.54 948.152 1246.87 951.924 1243.79 953.48C1238.92 957.318 1224.69 968.449 1219.21 970.227C1218.89 961.869 1219.04 952.618 1219 944.185C1218.91 936.715 1219.05 929.245 1219.4 921.783L1219.38 876.994L1351.09 816.195C1379.37 803.127 1409.41 788.864 1438.16 776.98Z"/><path fill="#0D6486" transform="matrix(1.00811 0 0 1.00777 -221.784 -182.406)" d="M1229.78 949.112C1230.52 946.637 1236.1 935.463 1237.42 933.276C1240.7 927.866 1250.78 903.467 1256.07 902.074C1265.38 909.457 1275.95 918.256 1285.43 925.189C1275.61 931.891 1264.94 938.841 1255.68 946.204C1252.54 948.152 1246.87 951.924 1243.79 953.48C1240.25 954.417 1227.55 960.139 1223.46 961.858C1225.59 957.624 1227.7 953.375 1229.78 949.112Z"/><path fill="#1A7996" transform="matrix(1.00811 0 0 1.00777 -221.784 -182.406)" d="M1219.4 921.783C1222.18 914.064 1217.53 881.789 1221.86 878.891C1227.92 889.944 1218.59 942.885 1224.92 952.134C1228.16 951.561 1226.71 951.859 1229.78 949.112C1227.7 953.375 1225.59 957.624 1223.46 961.858C1227.55 960.139 1240.25 954.417 1243.79 953.48C1238.92 957.318 1224.69 968.449 1219.21 970.227C1218.89 961.869 1219.04 952.618 1219 944.185C1218.91 936.715 1219.05 929.245 1219.4 921.783Z"/><path fill="#073C5F" transform="matrix(1.00811 0 0 1.00777 -221.784 -182.406)" d="M1085.52 355.614C1086.41 363.597 1086.32 371.732 1086.38 379.762C1086.59 410.762 1085.8 441.878 1086.24 472.867C1142.14 472.292 1199.79 474.236 1255.37 472.493C1258.11 563.87 1254.05 656.065 1255.06 747.477C1255.15 756.066 1253.93 789.563 1255.54 795.282C1259.42 797.048 1261.78 796.952 1266.1 797.367C1250.59 800.047 1234.58 803.973 1219.19 807.551C1219.74 778.169 1221.01 517.624 1218.18 510.14C1203.96 508.236 1181.94 508.942 1166.95 508.948L1085.4 508.982C1085.95 474.433 1083.83 438.519 1084.53 403.835C1084.84 388.365 1083.76 370.892 1085.52 355.614Z"/><path fill="#073C5F" transform="matrix(1.00811 0 0 1.00777 -221.784 -182.406)" d="M1243.79 953.48C1246.87 951.924 1252.54 948.152 1255.68 946.204C1255.84 950.695 1255.83 961.413 1256.85 965.046L1248.16 971.645C1252.7 972.281 1252.56 971.457 1254.87 974.054C1256.35 981.388 1255.9 1006.32 1255.91 1015.21L1255.91 1092.11L1255.59 1258.24C1255.57 1293.35 1255.82 1328.65 1255.13 1363.75C1254.95 1372.59 1254.58 1382.15 1252.44 1390.7C1245.42 1393.14 1226.35 1392.7 1218.9 1391.18C1220.26 1339.36 1219.09 1282.37 1219.1 1230.13C1219.76 1151.01 1219.69 1071.89 1218.91 992.769L1219 992.131C1219.86 985.48 1220.76 976.789 1219.21 970.227C1224.69 968.449 1238.92 957.318 1243.79 953.48Z"/><path fill="#D8F2F1" transform="matrix(1.00811 0 0 1.00777 -221.784 -182.406)" d="M1243.79 953.48C1246.87 951.924 1252.54 948.152 1255.68 946.204C1255.84 950.695 1255.83 961.413 1256.85 965.046L1248.16 971.645C1240.72 976.632 1225.5 986.617 1219 992.131C1219.86 985.48 1220.76 976.789 1219.21 970.227C1224.69 968.449 1238.92 957.318 1243.79 953.48Z"/><path fill="#16C4D5" transform="matrix(1.00811 0 0 1.00777 -221.784 -182.406)" d="M1439.69 759.003C1464.7 752.631 1487.66 747.953 1512.97 742.879C1506.34 751.799 1499.61 760.634 1492.76 769.381C1491.98 765.06 1492.79 765.757 1490.21 763.242C1478.26 760.031 1455.4 780.367 1443.57 785.621C1445.22 781.563 1445.77 781.973 1445.31 778.22C1442.02 776.331 1442.56 776.978 1438.16 776.98C1443.05 772.93 1458.21 769.031 1458.66 761.554C1454.92 757.375 1444.98 758.736 1439.69 759.003Z"/><path fill="#99ACB3" transform="matrix(1.00811 0 0 1.00777 -221.784 -182.406)" d="M1285.43 925.189L1298.1 935.735C1285.32 945.637 1270.34 955.99 1256.85 965.046C1255.83 961.413 1255.84 950.695 1255.68 946.204C1264.94 938.841 1275.61 931.891 1285.43 925.189Z"/><path fill="#073C5F" transform="matrix(1.00811 0 0 1.00777 -221.784 -182.406)" d="M236.176 945.699L237.942 944.559C238.754 947.623 238.481 946.268 238.314 949.436C237.708 960.96 243.086 980.89 239.565 991.607C237.72 991.753 238.751 991.867 236.555 990.82C235.743 993.012 235.732 992.972 235.561 995.295L233.532 995.231C233.704 978.907 235.258 962.098 236.176 945.699Z"/><path fill="#073C5F" transform="matrix(1.00811 0 0 1.00777 -221.784 -182.406)" d="M1799.07 1184.29C1798.11 1178.07 1798.03 1155.68 1799.38 1148.81C1800.43 1143.43 1802.48 1142.71 1806.77 1139.85C1804.83 1154.77 1802.26 1169.59 1799.07 1184.29Z"/><path fill="#073C5F" transform="matrix(1.00811 0 0 1.00777 -221.784 -182.406)" d="M1806.15 909.753C1801.08 911.158 1803.68 912.785 1799.06 913.528C1798.43 911.649 1800.67 881.316 1801.39 877.743C1802.9 886.748 1805.72 901.03 1806.15 909.753Z"/><path fill="#073C5F" transform="matrix(1.00811 0 0 1.00777 -221.784 -182.406)" d="M1347.74 1433.48C1351.44 1431.5 1351.9 1431.39 1356.03 1430.37C1359.37 1431.73 1359.47 1432.51 1359.44 1436.44C1361.81 1437.81 1363.95 1439.08 1366.27 1440.56L1366.23 1442.02C1360.53 1440.11 1353.29 1436.24 1347.74 1433.48Z"/></g></svg>