<?xml version="1.0" encoding="utf-8" ?><svg xmlns="http://www.w3.org/2000/svg" xmlns:xlink="http://www.w3.org/1999/xlink" width="1964" height="425" viewBox="0 0 1964 425"><clipPath id="cl_6"><rect y="0.00018310547" width="1964.0001" height="425.00006"/></clipPath><g clip-path="url(#cl_6)"><path fill="#1CF6F5" transform="matrix(1.04579 0 0 1.0468 -980.954 -609.236)" d="M596.522 536.084C622.65 528.618 656.249 522.447 683.067 516.823L806.316 490.228L951.215 458.828C973.997 453.862 1008.63 445.051 1031.16 441.809C1003.38 481.209 968.828 522.574 938.936 560.768L891.311 621.483C884.325 630.365 874.455 643.76 867.201 651.855C850.088 675.1 832.366 697.89 814.053 720.202C796.747 710.306 777.723 692.209 761.036 680.494C756.913 677.599 748.489 670.879 744.292 669.125C731.92 670.637 671.037 722.196 663.488 722.155C659.853 717.471 660.632 671.984 660.109 661.696C660.859 645.662 659.014 626.628 660.335 610.922L659.65 606.897L656.486 604.65C645.661 596.252 573.808 548.337 571.588 543.546C577.088 539.571 589.491 537.517 596.522 536.084Z"/><path fill="#1CF6F5" transform="matrix(1.04579 0 0 1.0468 -980.954 -609.236)" d="M596.522 536.084C622.65 528.618 656.249 522.447 683.067 516.823L806.316 490.228L951.215 458.828C973.997 453.862 1008.63 445.051 1031.16 441.809C1003.38 481.209 968.828 522.574 938.936 560.768L891.311 621.483C884.325 630.365 874.455 643.76 867.201 651.855C867.114 643.038 882.448 627.444 887.573 619.153C891.623 612.601 895.799 604.156 900.017 598.094C904.453 597.25 905.525 596.376 908.317 592.826C941.044 551.21 972.557 508.638 1005.56 467.224C1007.49 464.794 1009.46 461.365 1010.31 458.399L1008.81 456.003C1008.03 455.725 1007.3 455.252 1006.48 455.167C995.904 454.073 778.892 558.786 745.061 569.625C732.412 576.175 672.851 604.382 660.757 606.988L659.65 606.897L656.486 604.65C645.661 596.252 573.808 548.337 571.588 543.546C577.088 539.571 589.491 537.517 596.522 536.084Z"/><path fill="#11E3E9" transform="matrix(1.04579 0 0 1.0468 -980.954 -609.236)" d="M596.522 536.084C622.65 528.618 656.249 522.447 683.067 516.823L806.316 490.228L951.215 458.828C973.997 453.862 1008.63 445.051 1031.16 441.809C1003.38 481.209 968.828 522.574 938.936 560.768L891.311 621.483C884.325 630.365 874.455 643.76 867.201 651.855C867.114 643.038 882.448 627.444 887.573 619.153C891.623 612.601 895.799 604.156 900.017 598.094C904.453 597.25 905.525 596.376 908.317 592.826C941.044 551.21 972.557 508.638 1005.56 467.224C1007.49 464.794 1009.46 461.365 1010.31 458.399L1008.81 456.003C1008.03 455.725 1007.3 455.252 1006.48 455.167C995.904 454.073 778.892 558.786 745.061 569.625C756.847 558.563 809.104 540.481 826.045 532.263C841.696 524.67 858.741 516.717 874.536 509.44C906.992 494.487 948.912 479.298 979.133 461.396C940.396 466.319 901.893 472.945 863.738 481.254L723.211 511.834L650.747 527.768C637.286 530.645 609.604 537.514 596.522 536.084Z"/><path fill="#06A3D2" transform="matrix(1.04579 0 0 1.0468 -980.954 -609.236)" d="M745.061 569.625C778.892 558.786 995.904 454.073 1006.48 455.167C1007.3 455.252 1008.03 455.725 1008.81 456.003C999.81 461.371 988.131 468.811 979.078 473.55C970.988 478.195 939.022 496.565 932.884 502.344C912.076 512.432 868.825 540.811 847.653 553.794L710.672 636.675C709.134 637.625 708.904 638.047 707.867 639.453L707.836 641.25C713.335 645.207 720.982 650.382 725.931 654.733C732.683 659.687 737.911 663.614 744.292 669.125C731.92 670.637 671.037 722.196 663.488 722.155C659.853 717.471 660.632 671.984 660.109 661.696C660.859 645.662 659.014 626.628 660.335 610.922L659.65 606.897L660.757 606.988C672.851 604.382 732.412 576.175 745.061 569.625Z"/><path fill="#063454" transform="matrix(1.04579 0 0 1.0468 -980.954 -609.236)" d="M2030.81 611.638L2059.38 611.464C2062.69 615.767 2059.78 665.946 2060.8 676.172C2063.31 739.008 2061.12 800.386 2062.06 862.657L2060.44 921.153C2051.46 921.4 2036.66 923.377 2030.02 918.627C2027.91 915.571 2027.9 912.998 2027.94 909.208C2026.75 902.139 2028.96 890.543 2025.9 886.176C2019.26 894.362 2010.01 902.6 2000.78 907.795L1990.63 913.1C1969.77 922.685 1952.56 924.795 1929.8 923.946C1918.57 922.753 1909.71 921.471 1899 917.746L1893.78 915.634C1890.14 914.68 1879.04 907.685 1875.29 905.419C1868.93 900.318 1863.47 894.709 1856.99 889.757L1856.7 888.276C1853.48 885.34 1851.26 882.243 1848.62 878.811C1846.09 876.174 1843.58 872.049 1841.51 868.928C1841.16 868.02 1839.3 865.13 1838.69 864.129L1838.33 863.098C1837.65 861.426 1837.01 859.741 1836.4 858.046C1825 826.428 1823.79 789.566 1838.33 758.729C1839.72 756.098 1841.07 753.3 1842.41 750.629C1848.33 740.617 1851.93 735.16 1860.21 726.748C1861.17 725.513 1863.14 723.451 1864.26 722.21C1869.78 717.046 1873.64 714.576 1879.86 710.442L1894.78 703.668C1909.1 698.425 1916.29 697.106 1931.29 694.793C1949.98 693.359 1968.48 694.639 1985.73 702.683C1996.62 707.103 2006.26 712.737 2015 720.682C2016.69 722.306 2024.05 729.506 2025.61 730.454L2027.11 731.077C2027.57 726.212 2027.8 721.025 2027.8 716.131C2027.81 681.271 2028.7 645.555 2027.75 610.775L2030.81 611.638ZM1863.75 786.077C1857.29 821.764 1863.63 857.17 1895.21 878.764C1900.13 881.981 1904.06 884.473 1909.22 887.274C1933.23 896.478 1958.85 895.218 1982.82 885.761C1988.04 883.701 1997.97 877.313 2000.11 872.116C2010.92 864.914 2012.73 856.163 2017.39 853.054C2027.64 826.69 2029.5 810.699 2023 783.572L2021.54 777.666C2021.1 776.239 2020.64 774.823 2020.13 773.419C2013.08 753.262 1995.53 738.745 1976.77 729.736C1955.17 723.531 1939.36 722.577 1917.6 727.44L1913.29 729.427C1897.43 736.962 1873.84 754.132 1869.47 772.106C1868.03 773.976 1867.91 773.896 1867.31 776.132L1863.75 786.077Z"/><path fill="#03233B" transform="matrix(1.04579 0 0 1.0468 -980.954 -609.236)" d="M2030.81 611.638L2059.38 611.464C2062.69 615.767 2059.78 665.946 2060.8 676.172C2063.31 739.008 2061.12 800.386 2062.06 862.657L2060.44 921.153C2051.46 921.4 2036.66 923.377 2030.02 918.627C2027.91 915.571 2027.9 912.998 2027.94 909.208C2028.65 900.876 2028.53 893.041 2029.4 884.767C2033.02 899.616 2033.24 897.284 2031.07 912.977C2038.01 912.965 2050.88 911.315 2058.33 910.618C2058.43 910.389 2058.53 910.16 2058.63 909.931C2061.3 866.264 2058.4 814.058 2058.01 771.161C2057.57 723.58 2058.24 684.875 2058.28 638.143C2058.29 634.237 2058.15 629.992 2056.81 626.582C2051.01 622.514 2039.38 624.108 2031.95 624.414C2030.32 641.257 2034.42 725.408 2028.4 732.713L2027.11 731.077C2027.57 726.212 2027.8 721.025 2027.8 716.131C2027.81 681.271 2028.7 645.555 2027.75 610.775L2030.81 611.638Z"/><path fill="#052B48" transform="matrix(1.04579 0 0 1.0468 -980.954 -609.236)" d="M2030.81 611.638L2059.38 611.464C2058.63 615.535 2059 618.935 2057.03 621.533C2048.26 621.447 2041.3 621.063 2032.57 620.362C2030.52 617.799 2030.92 615.097 2030.81 611.638Z"/><path fill="#03233B" transform="matrix(1.04579 0 0 1.0468 -980.954 -609.236)" d="M1893.78 915.634C1914.28 911.098 1969.7 910.785 1990.63 913.1C1969.77 922.685 1952.56 924.795 1929.8 923.946C1918.57 922.753 1909.71 921.471 1899 917.746L1893.78 915.634Z"/><path fill="#03233B" transform="matrix(1.04579 0 0 1.0468 -980.954 -609.236)" d="M1931.29 694.793C1949.98 693.359 1968.48 694.639 1985.73 702.683L1985.19 704.083C1955.56 703.391 1922.84 704.895 1894.78 703.668C1909.1 698.425 1916.29 697.106 1931.29 694.793Z"/><path fill="#052B48" transform="matrix(1.04579 0 0 1.0468 -980.954 -609.236)" d="M1985.73 702.683C1996.62 707.103 2006.26 712.737 2015 720.682C2011.83 721.668 1996.78 722.035 1994.67 719.546L1996.05 716.565C1994.15 711.471 1988.81 712.18 1985.19 704.083L1985.73 702.683Z"/><path fill="#03233B" transform="matrix(1.04579 0 0 1.0468 -980.954 -609.236)" d="M1842.41 750.629C1848.33 740.617 1851.93 735.16 1860.21 726.748C1860.61 731.149 1861.21 733.044 1859.08 736.956C1852.88 743.621 1859.36 751.575 1852.35 752.573C1847.11 749.996 1848.06 749.492 1842.41 750.629Z"/><path fill="#03233B" transform="matrix(1.04579 0 0 1.0468 -980.954 -609.236)" d="M2000.78 907.795L2000.58 897.839C2002.95 893.654 2007.85 896.771 2010.58 895.885C2015.82 894.184 2018.33 881.691 2025.16 883.387L2025.9 886.176C2019.26 894.362 2010.01 902.6 2000.78 907.795Z"/><path fill="#052B48" transform="matrix(1.04579 0 0 1.0468 -980.954 -609.236)" d="M1860.21 726.748C1861.17 725.513 1863.14 723.451 1864.26 722.21L1865.65 725.667C1869.15 727.14 1872.8 730.897 1873.19 734.785C1869.17 738.477 1864.3 737.105 1859.08 736.956C1861.21 733.044 1860.61 731.149 1860.21 726.748Z"/><path fill="#03233B" transform="matrix(1.04579 0 0 1.0468 -980.954 -609.236)" d="M1854.73 861.575C1855.65 868.287 1857.01 877.769 1858.3 884.611C1857.67 886.053 1857.14 887.274 1856.7 888.276C1853.48 885.34 1851.26 882.243 1848.62 878.811C1853.97 875.99 1853.18 867.576 1854.73 861.575Z"/><path fill="#F7FBF8" fill-opacity="0.0078431377" transform="matrix(1.04579 0 0 1.0468 -980.954 -609.236)" d="M2023 783.572C2029.5 810.699 2027.64 826.69 2017.39 853.054C2012.73 856.163 2010.92 864.914 2000.11 872.116C2001.19 859.364 2009.64 853.471 2013.67 843.705C2020.7 826.676 2022.1 802.09 2023 783.572Z"/><path fill="#03233B" transform="matrix(1.04579 0 0 1.0468 -980.954 -609.236)" d="M2021.54 777.666L2022.32 774.955C2024.4 775.986 2024.31 776.498 2025.73 778.632L2026.82 778.5C2027.17 774.507 2026.53 770.603 2028.37 768.155L2029.97 768.911C2032.43 776.046 2030.22 786.93 2030.02 797.495C2029.9 803.596 2034.12 840.046 2028.75 846.936C2030.6 844.567 2016.72 853.479 2017.39 853.054C2027.64 826.69 2029.5 810.699 2023 783.572L2021.54 777.666Z"/><defs><linearGradient id="gradient_0" gradientUnits="userSpaceOnUse" x1="1903.7642" y1="750.03046" x2="1887.6826" y2="744.42847"><stop offset="0" stop-color="#FFFFFC" stop-opacity="0"/><stop offset="1" stop-color="#E9F5F2" stop-opacity="0.039215688"/></linearGradient></defs><path fill="url(#gradient_0)" transform="matrix(1.04579 0 0 1.0468 -980.954 -609.236)" d="M1913.29 729.427C1910.62 741.036 1902.64 744.302 1894.85 752.605C1891.9 755.749 1886.68 760.237 1883.27 763.053C1874.28 766.541 1876.18 761.563 1869.47 772.106C1873.84 754.132 1897.43 736.962 1913.29 729.427Z"/><path fill="#03233B" transform="matrix(1.04579 0 0 1.0468 -980.954 -609.236)" d="M1917.6 727.44C1920.71 723.661 1922.33 720.548 1927.19 720.489C1941.58 720.313 1964.69 720.956 1978.53 723.29L1979.27 724.035C1978.27 725.891 1977.07 727.695 1976.77 729.736C1955.17 723.531 1939.36 722.577 1917.6 727.44Z"/><path fill="#03233B" transform="matrix(1.04579 0 0 1.0468 -980.954 -609.236)" d="M1838.93 846.156C1834.98 840.612 1836.29 776.754 1838.18 774.375L1840.18 775.757C1839.33 792.519 1841.8 833.214 1838.93 846.156Z"/><path fill="#063A5C" transform="matrix(1.04579 0 0 1.0468 -980.954 -609.236)" d="M1895.21 878.764C1900.13 881.981 1904.06 884.473 1909.22 887.274C1906.35 897.648 1889.48 890.175 1892.59 879.912L1895.21 878.764Z"/><path fill="#063A5C" transform="matrix(1.04579 0 0 1.0468 -980.954 -609.236)" d="M1863.75 786.077C1860.74 785.434 1861.88 786.193 1860.09 783.915C1859.17 779.021 1858.83 772.444 1864.33 770.334C1867.04 772.454 1866.21 771.986 1867.31 776.132L1863.75 786.077Z"/><path fill="#063454" transform="matrix(1.04579 0 0 1.0468 -980.954 -609.236)" d="M945.22 628.21C963.72 627.593 990.698 627.766 1009.16 628.285L1012.39 629.232C1014.43 633.64 1014.09 731.144 1013.64 741.393C1042.81 741.022 1085.53 739.247 1113.48 741.246C1118.83 741.376 1126.13 741.814 1131.26 741.538C1136.75 740.954 1138.57 741.16 1143.25 737.871C1142.43 728.687 1142.62 631.926 1143.92 628.118C1152.03 628.09 1204.3 627.117 1208.61 628.925C1210.32 635.568 1209.77 662.302 1209.76 670.69L1209.69 749.999L1209.95 858.47C1209.98 875.791 1210.76 902.052 1209.15 918.503C1202.43 922.966 1152.34 922.178 1142.54 921.66C1141.57 881.328 1142.82 839.801 1141.81 799.253L1014.18 799.508C1013.75 839.484 1014.17 881.569 1013.16 921.275C1001.62 921.877 957.196 922.758 948.045 919.539C944.411 915.77 945.46 903.45 945.467 897.551C944.91 856.594 945.391 814.977 945.349 773.943L945.22 628.21Z"/><path fill="#03233B" transform="matrix(1.04579 0 0 1.0468 -980.954 -609.236)" d="M1199.92 912.761L1199.94 747.882C1199.95 733.175 1198.88 643.058 1201.61 638.637C1208.91 645.365 1205.88 671.145 1205.87 681.38L1206.41 750.362C1207.13 746.39 1206.29 731.948 1206.66 728.101C1208.07 713.738 1206 637.02 1208.61 628.925C1210.32 635.568 1209.77 662.302 1209.76 670.69L1209.69 749.999L1209.95 858.47C1209.98 875.791 1210.76 902.052 1209.15 918.503C1202.43 922.966 1152.34 922.178 1142.54 921.66C1141.57 881.328 1142.82 839.801 1141.81 799.253L1014.18 799.508C1013.75 839.484 1014.17 881.569 1013.16 921.275C1001.62 921.877 957.196 922.758 948.045 919.539C944.411 915.77 945.46 903.45 945.467 897.551C946.612 892.564 946.368 878.783 946.404 873.006C947.504 874.723 947.123 907.462 947.136 912.356C965.761 913.655 988.085 912.843 1006.94 912.495C1009.1 893.368 1003.97 806.285 1010.21 797.599C1021.98 791.032 1126.98 793.515 1144.49 797.265L1144.88 801.319C1146.85 820.894 1142.49 898.229 1147.12 909.844C1154.58 913.472 1189.12 912.602 1199.92 912.761Z"/><path fill="#03233B" transform="matrix(1.04579 0 0 1.0468 -980.954 -609.236)" d="M1009.16 628.285L1012.39 629.232C1014.43 633.64 1014.09 731.144 1013.64 741.393C1042.81 741.022 1085.53 739.247 1113.48 741.246C1118.83 741.376 1126.13 741.814 1131.26 741.538L1133.37 742.252C1134.04 746.063 1135.91 747.362 1139.02 749.332C1141.56 749.326 1143.76 748.931 1145.69 750.371C1131.51 752.397 1110.85 752.258 1096.19 752.387C1066.54 752.475 1036.89 752.402 1007.24 752.169L1007.96 643.678C1008.06 641.05 1008.41 638.522 1008.72 635.913C1009.02 635.497 1009.56 634.007 1009.77 633.461C1008.88 632.226 1008.01 630.979 1007.15 629.72L1009.16 628.285Z"/><path fill="#052B48" transform="matrix(1.04579 0 0 1.0468 -980.954 -609.236)" d="M1113.48 741.246C1118.83 741.376 1126.13 741.814 1131.26 741.538L1133.37 742.252C1134.04 746.063 1135.91 747.362 1139.02 749.332C1132.92 749.115 1109.51 746.303 1104.87 743.297L1106.38 741.994C1109.52 742.475 1110.43 742.154 1113.48 741.246Z"/><path fill="#052B48" transform="matrix(1.04579 0 0 1.0468 -980.954 -609.236)" d="M1024.1 742.49C1043.81 742.338 1063.53 742.324 1083.24 742.448C1080.37 742.818 1077.69 743.269 1074.84 743.758C1064.81 745.739 1023.82 753.033 1016.82 744.867C1019.84 742.473 1019.68 743.183 1024.1 742.49Z"/><path fill="#03233B" transform="matrix(1.04579 0 0 1.0468 -980.954 -609.236)" d="M1143.92 628.118C1144.37 630.738 1144.52 631.958 1145.44 634.519L1146.65 634.712C1150.76 636.043 1151.13 635.36 1153.02 638.139L1153.1 639.819C1149.58 655.765 1155.39 727.011 1149.36 733.656C1144.36 734.824 1145.98 733.675 1143.25 737.871C1142.43 728.687 1142.62 631.926 1143.92 628.118Z"/><path fill="#052B48" transform="matrix(1.04579 0 0 1.0468 -980.954 -609.236)" d="M1007.96 643.678C1005.87 631.524 964.054 646.155 955.468 639.125L955.832 637.773C964.743 633.1 993.929 637.413 1007.28 636.069L1008.72 635.913C1008.41 638.522 1008.06 641.05 1007.96 643.678Z"/><path fill="#052B48" transform="matrix(1.04579 0 0 1.0468 -980.954 -609.236)" d="M1146.65 634.712C1162.94 635.604 1184.57 634.963 1199.52 638.416C1187.62 639.367 1163.75 642.129 1153.1 639.819L1153.02 638.139C1151.13 635.36 1150.76 636.043 1146.65 634.712Z"/><path fill="#063454" transform="matrix(1.04579 0 0 1.0468 -980.954 -609.236)" d="M2515.41 694.91C2528.31 694.608 2555.06 695.525 2566.06 701.364L2568.51 700.167C2571.41 703.558 2585.03 709.228 2589.89 711.498C2614.45 727.596 2629.91 747.172 2637.66 775.825C2644.9 796.105 2643.94 821.475 2638.17 841.945C2636.54 847.108 2630.23 867.087 2626.99 869.239C2625.37 872.353 2624.19 874.598 2622.22 877.543C2621.1 879.006 2619.91 880.506 2618.85 882.008C2615.43 886.206 2613.16 888.999 2609.26 892.731L2605.28 896.48L2598.12 901.576C2569.7 925.02 2532.76 925.111 2498.47 922.179C2489.89 919.887 2486.84 920.115 2477.49 916.714C2470.38 915.572 2456.07 906.677 2449.72 902.811L2446.11 899.127C2440.64 894.728 2437.91 892.649 2433.41 887.373C2429.07 882.973 2425.17 877.718 2421.34 872.826C2420.03 869.648 2417.44 865.888 2415.56 862.903L2414.61 860.785L2412.86 858.558C2397.97 826.482 2399.84 792.542 2413.51 760.624C2415.89 755.605 2418.46 751.372 2421.29 746.591C2427.29 735.61 2436.9 726.542 2446.81 719.138C2455.6 711.274 2470.62 705.422 2481.65 701.189C2491.68 697.329 2504.64 696.549 2515.41 694.91ZM2441.91 838.327C2445.2 845.203 2448.47 852.339 2452.16 858.987C2459.29 869.668 2465.14 875.136 2476.23 881.829C2478.72 883.083 2484.33 886.118 2486.74 886.754C2507.39 894.698 2533.79 897.886 2554.54 888.932C2560.1 887.254 2566.55 883.432 2571.78 880.605C2581.27 872.993 2586.41 868.2 2593.88 858.884L2598.2 851.075C2600.97 846.672 2603.83 838.688 2605.51 833.697C2608.83 827.85 2609.03 810.338 2608.99 803.206C2607.91 800.483 2607.49 796.114 2606.82 793.03C2605.2 785.529 2603.39 780.23 2600.33 773.263C2598.39 768.993 2595.28 761.934 2591.88 758.868C2590.41 755.805 2587.86 753.329 2585.57 750.756C2578.12 742.728 2570.81 736.747 2560.76 732.274C2558.94 731.018 2554.9 729.492 2552.69 728.553C2507.21 713.491 2458.92 735.772 2442.52 781.531C2436.7 797.784 2439.31 805.418 2438.47 820.644C2438.96 823.425 2441.94 836.987 2441.91 838.327Z"/><path fill="#052B48" transform="matrix(1.04579 0 0 1.0468 -980.954 -609.236)" d="M2446.11 899.127C2458.02 896.549 2471.74 910.358 2473.85 910.502C2506.74 912.742 2541.86 912.998 2574.75 910.76C2579.85 910.389 2580.25 900.648 2598.12 901.576C2569.7 925.02 2532.76 925.111 2498.47 922.179C2489.89 919.887 2486.84 920.115 2477.49 916.714C2470.38 915.572 2456.07 906.677 2449.72 902.811L2446.11 899.127Z"/><path fill="#03233B" transform="matrix(1.04579 0 0 1.0468 -980.954 -609.236)" d="M2477.49 916.714C2482.73 915.416 2497.12 913.336 2502.08 915.163C2501.47 917.602 2499.81 919.979 2498.47 922.179C2489.89 919.887 2486.84 920.115 2477.49 916.714Z"/><path fill="#052B48" transform="matrix(1.04579 0 0 1.0468 -980.954 -609.236)" d="M2413.51 760.624C2417.68 779.982 2415.57 809.437 2416.14 829.285C2416.18 830.647 2414.46 861.271 2414.61 860.785L2412.86 858.558C2397.97 826.482 2399.84 792.542 2413.51 760.624Z"/><path fill="#03233B" transform="matrix(1.04579 0 0 1.0468 -980.954 -609.236)" d="M2515.41 694.91C2528.31 694.608 2555.06 695.525 2566.06 701.364C2558.67 704.62 2493 704.806 2481.65 701.189C2491.68 697.329 2504.64 696.549 2515.41 694.91Z"/><path fill="#052B48" transform="matrix(1.04579 0 0 1.0468 -980.954 -609.236)" d="M2446.81 719.138L2448.3 721.621C2446.58 728.086 2450.56 732.669 2446.09 736.002C2441.28 735.488 2438.41 734.242 2434.47 736.06C2428.18 742.917 2434.07 746.321 2430.78 752.824L2428.95 754.17L2427.13 753.62C2426.4 751.343 2425.86 749.563 2424.89 747.352L2421.29 746.591C2427.29 735.61 2436.9 726.542 2446.81 719.138Z"/><path fill="#052B48" transform="matrix(1.04579 0 0 1.0468 -980.954 -609.236)" d="M2609.26 892.731C2607.45 889.237 2605.41 886.108 2605.11 882.282C2609.42 879.747 2615.27 876.596 2618.84 873.331C2623.08 869.445 2621.61 870.257 2626.99 869.239C2625.37 872.353 2624.19 874.598 2622.22 877.543C2621.1 879.006 2619.91 880.506 2618.85 882.008C2615.43 886.206 2613.16 888.999 2609.26 892.731Z"/><path fill="#052B48" transform="matrix(1.04579 0 0 1.0468 -980.954 -609.236)" d="M2421.34 872.826C2426.84 871.934 2425.59 871.006 2429.64 867.028L2430.92 867.417C2433.47 873.767 2432.76 880.693 2433.41 887.373C2429.07 882.973 2425.17 877.718 2421.34 872.826Z"/><path fill="#F7FBF8" fill-opacity="0.019607844" transform="matrix(1.04579 0 0 1.0468 -980.954 -609.236)" d="M2486.74 886.754C2501.33 886.777 2513.44 884.062 2528.28 883.856C2540.9 883.68 2545.94 889.099 2554.54 888.932C2533.79 897.886 2507.39 894.698 2486.74 886.754Z"/><path fill="#F7FBF8" fill-opacity="0.015686275" transform="matrix(1.04579 0 0 1.0468 -980.954 -609.236)" d="M2452.16 858.987C2471.18 862.093 2479.16 860.481 2476.23 881.829C2465.14 875.136 2459.29 869.668 2452.16 858.987Z"/><path fill="#03233B" transform="matrix(1.04579 0 0 1.0468 -980.954 -609.236)" d="M2593.88 858.884C2594.42 863.549 2593.07 871.019 2590.74 875.149C2588.04 879.942 2576.78 881.51 2571.78 880.605C2581.27 872.993 2586.41 868.2 2593.88 858.884Z"/><path fill="#052B48" transform="matrix(1.04579 0 0 1.0468 -980.954 -609.236)" d="M2600.33 773.263C2610.43 768.841 2603.45 760.51 2606.85 755.009C2608.9 757.535 2609.72 797.79 2608.99 803.206C2607.91 800.483 2607.49 796.114 2606.82 793.03C2605.2 785.529 2603.39 780.23 2600.33 773.263Z"/><path fill="#F7FBF8" fill-opacity="0.011764706" transform="matrix(1.04579 0 0 1.0468 -980.954 -609.236)" d="M2552.69 728.553C2554.9 729.492 2558.94 731.018 2560.76 732.274C2567.08 744.402 2570.59 750.679 2585.57 750.756C2587.86 753.329 2590.41 755.805 2591.88 758.868C2582.39 758.394 2554.36 739.717 2552.69 728.553Z"/><path fill="#EDF6F3" fill-opacity="0.043137256" transform="matrix(1.04579 0 0 1.0468 -980.954 -609.236)" d="M2560.76 732.274C2570.81 736.747 2578.12 742.728 2585.57 750.756C2570.59 750.679 2567.08 744.402 2560.76 732.274Z"/><path fill="#03233B" transform="matrix(1.04579 0 0 1.0468 -980.954 -609.236)" d="M2605.51 833.697C2606.96 839.572 2608.33 857.94 2606.46 863.038L2605.24 863.489C2599.94 858.476 2606.36 855.082 2603.6 849.287C2600.8 849.843 2600.68 849.951 2598.2 851.075C2600.97 846.672 2603.83 838.688 2605.51 833.697Z"/><path fill="#052B48" transform="matrix(1.04579 0 0 1.0468 -980.954 -609.236)" d="M2441.91 838.327C2437.48 838.744 2437.25 841.809 2433.66 846.049C2430.76 841.066 2437.38 835.348 2437.48 832.013C2437.64 826.84 2437.19 826.188 2438.47 820.644C2438.96 823.425 2441.94 836.987 2441.91 838.327Z"/><path fill="#063A5C" transform="matrix(1.04579 0 0 1.0468 -980.954 -609.236)" d="M2198.15 701.461C2225.38 692.609 2257.84 691.834 2284.78 701.854C2301.57 707.686 2327.08 721.95 2336.11 737.713C2341.8 742.562 2349.67 760.341 2352.75 767.676C2359.02 782.514 2362.48 791.808 2361.64 808.578C2361.84 820.925 2360.97 839.552 2353.67 850.094L2352.75 852.939C2351.52 855.356 2350.24 857.636 2349.42 860.221L2348.29 861.796C2342.53 872.297 2335.55 883.776 2326.78 892.086L2316.01 901.742C2309.99 905.158 2304 908.63 2298.04 912.157C2260.04 929.53 2220.78 927.53 2182.86 910.987L2179.3 909.529C2173.63 906.277 2169.16 903.485 2163.74 899.834C2126.97 867.498 2112.76 823.214 2126.58 776.035C2127.09 775.113 2128.77 770.799 2129.26 769.595C2129.77 766.731 2134.84 755.465 2136.17 752.935C2148.44 729.554 2173.2 709.472 2198.15 701.461ZM2161.4 779.192C2161.22 780.84 2161.01 781.659 2160.36 783.129C2154.86 795.597 2155.84 807.807 2156.88 821.007C2157.13 824.557 2158.39 825.626 2158.29 829.754C2160.31 839.632 2164.66 847.576 2169.68 856.225L2170.43 857.348C2176.15 864.415 2180.24 869.458 2186.68 875.909C2192.65 880.791 2195.67 883.467 2202.63 887.049C2228.49 895.943 2256.4 899.507 2281.25 884.79C2299.72 880.102 2314.74 855.419 2320.75 839.072C2321.85 836.076 2324.34 827.928 2325.59 826.267C2326.52 814.755 2327.02 804.095 2324.58 792.719C2323.32 785.523 2322.39 780.859 2319.5 774.042C2315.43 763.725 2307.68 755.044 2300.16 747.142C2290.43 741.909 2285.55 732.989 2269.23 728.401C2248.21 722.491 2221.42 722.239 2201.91 732.432L2199.16 733.522C2191.2 740.368 2178.91 750.327 2173.22 758.858C2168.21 765.348 2164.95 771.826 2161.4 779.192Z"/><path fill="#03233B" transform="matrix(1.04579 0 0 1.0468 -980.954 -609.236)" d="M2182.86 910.987C2193.92 910.46 2208.1 910.277 2219.1 911.596C2245.63 914.778 2271.7 909.357 2298.04 912.157C2260.04 929.53 2220.78 927.53 2182.86 910.987Z"/><path fill="#03233B" transform="matrix(1.04579 0 0 1.0468 -980.954 -609.236)" d="M2126.58 776.035C2127.09 775.113 2128.77 770.799 2129.26 769.595C2128.84 794.61 2125.78 820.993 2129.47 845.768C2129.86 848.41 2136.69 858.707 2139.98 859.163C2141.1 856.56 2141.77 854.807 2142.62 852.105C2146.8 855.232 2140.61 871.001 2146.67 878.388C2153.73 882.454 2156.54 874.717 2162.97 882.942C2164 889.321 2161.04 889.135 2163 894.548C2167.65 897.684 2171.01 894.799 2176.22 898.647C2178.99 900.695 2183.79 900.117 2186.2 903.502C2185.35 906.988 2182.44 908.084 2179.3 909.529C2173.63 906.277 2169.16 903.485 2163.74 899.834C2126.97 867.498 2112.76 823.214 2126.58 776.035Z"/><path fill="#03233B" transform="matrix(1.04579 0 0 1.0468 -980.954 -609.236)" d="M2198.15 701.461C2225.38 692.609 2257.84 691.834 2284.78 701.854L2284.36 703.041C2273.29 703.703 2206.25 705.165 2198.15 701.461Z"/><path fill="#052B48" transform="matrix(1.04579 0 0 1.0468 -980.954 -609.236)" d="M2352.75 767.676C2359.02 782.514 2362.48 791.808 2361.64 808.578C2361.84 820.925 2360.97 839.552 2353.67 850.094C2353.67 841.176 2353.16 833.209 2352.59 824.322C2351.29 811.225 2353.3 783.049 2352.75 767.676Z"/><path fill="#03233B" transform="matrix(1.04579 0 0 1.0468 -980.954 -609.236)" d="M2352.59 824.322C2352.76 821.492 2352.64 820.197 2353.82 817.572C2362.09 815.479 2359.57 807.576 2360.02 800.387L2360.27 803.214C2361.58 805.121 2361.33 806.06 2361.64 808.578C2361.84 820.925 2360.97 839.552 2353.67 850.094C2353.67 841.176 2353.16 833.209 2352.59 824.322Z"/><path fill="#052B48" transform="matrix(1.04579 0 0 1.0468 -980.954 -609.236)" d="M2284.78 701.854C2301.57 707.686 2327.08 721.95 2336.11 737.713C2329.94 736.304 2320.7 737.306 2318.09 731.352L2319.97 726.785C2315.52 717.789 2294.81 724.589 2288.28 718.286C2289.62 716.002 2291.62 715.651 2294.4 714.316L2294.82 713.083C2291.71 707.806 2288.37 708.784 2284.36 703.041L2284.78 701.854Z"/><path fill="#052B48" transform="matrix(1.04579 0 0 1.0468 -980.954 -609.236)" d="M2326.78 892.086C2326.27 889.724 2326.42 889.443 2324.73 887.669L2320.76 887.856C2318.26 885.879 2318.1 882.845 2319.19 880.121C2323.24 878.363 2326.35 880.679 2330.19 880.025C2338.5 878.608 2334.98 861.198 2338.02 857.517L2339.14 858L2340.29 863.994L2341.42 864.736C2343.82 863.603 2345.81 862.759 2348.29 861.796C2342.53 872.297 2335.55 883.776 2326.78 892.086Z"/><path fill="#F7FBF8" fill-opacity="0.015686275" transform="matrix(1.04579 0 0 1.0468 -980.954 -609.236)" d="M2202.63 887.049C2210.3 886.488 2220.52 883.099 2228.88 883.324C2246.55 883.801 2263.49 884.68 2281.25 884.79C2256.4 899.507 2228.49 895.943 2202.63 887.049Z"/><path fill="#052B48" transform="matrix(1.04579 0 0 1.0468 -980.954 -609.236)" d="M2161.4 779.192C2159.76 772.377 2156.78 758.528 2161.45 753.153C2165.14 751.337 2168.29 752.596 2173.23 752.395C2178.41 747.899 2177.02 745.43 2176.06 739.227L2177.52 737.27C2182.37 734.828 2193.19 734.214 2199.16 733.522C2191.2 740.368 2178.91 750.327 2173.22 758.858C2168.21 765.348 2164.95 771.826 2161.4 779.192Z"/><path fill="#052B48" transform="matrix(1.04579 0 0 1.0468 -980.954 -609.236)" d="M2324.58 792.719L2325.66 790.94C2327.35 792.033 2327.84 793.843 2328.71 795.759L2329.89 795.509C2331.97 792.11 2331.06 789.914 2332.97 784.927C2335.67 791.302 2336.67 802.689 2335.68 809.42C2334.76 815.62 2335.44 832.271 2332.33 836.389C2331.97 831.638 2331.79 824.44 2330.13 820.275L2329.06 820.337L2328.7 821.233C2327.76 823.54 2327.54 824.724 2325.59 826.267C2326.52 814.755 2327.02 804.095 2324.58 792.719Z"/><path fill="#F7FBF8" fill-opacity="0.015686275" transform="matrix(1.04579 0 0 1.0468 -980.954 -609.236)" d="M2199.16 733.522L2201.91 732.432C2201.19 742.024 2201.22 742.247 2193.81 749.204C2190.32 752.481 2177.56 758.959 2173.22 758.858C2178.91 750.327 2191.2 740.368 2199.16 733.522Z"/><path fill="#063454" transform="matrix(1.04579 0 0 1.0468 -980.954 -609.236)" d="M2300.16 747.142L2302.5 745.907C2306.18 747.299 2319.1 751.381 2320.33 753.235C2320.24 761.8 2318.78 765.041 2319.5 774.042C2315.43 763.725 2307.68 755.044 2300.16 747.142Z"/><path fill="#052B48" transform="matrix(1.04579 0 0 1.0468 -980.954 -609.236)" d="M2186.68 875.909C2184.31 876.366 2183.82 875.613 2181.37 875.688L2179.81 879.287C2177.43 880.205 2178.61 880.203 2176.16 879.131C2172.97 874.567 2170.6 865.191 2168.94 859.558L2170.43 857.348C2176.15 864.415 2180.24 869.458 2186.68 875.909Z"/><path fill="#052B48" transform="matrix(1.04579 0 0 1.0468 -980.954 -609.236)" d="M2158.29 829.754C2160.31 839.632 2164.66 847.576 2169.68 856.225C2167.4 857.514 2168.27 857.169 2164.99 856.458C2160.85 858.415 2164.9 859.833 2161.47 864.201L2160.31 863.428C2160.67 852.073 2156.4 837.979 2158.29 829.754Z"/><path fill="#063454" transform="matrix(1.04579 0 0 1.0468 -980.954 -609.236)" d="M1666.24 694.081C1673.61 694.2 1680.53 694.355 1687.9 694.985C1702.58 697.648 1716.88 700.993 1730.11 708.278L1731.33 708.752C1739.75 712.567 1743.62 715.319 1751.14 720.65L1756.13 725.163C1761.28 731.266 1769.06 739.747 1771.86 746.994C1773.21 749.362 1774.51 751.759 1775.76 754.183C1785.17 772.35 1791.45 802.333 1789.05 824.439C1788.99 825.002 1788.51 825.558 1788.14 826.045C1780.92 827.68 1761.37 827.201 1752.87 827.211L1661.47 827.468C1653.02 827.542 1628.47 827.218 1621.55 828.813L1620.53 830.463C1621.28 832.877 1621.65 833.954 1622.66 836.257C1626.37 843.325 1631.01 847.919 1633.29 852.078C1638.46 856.963 1642.9 860.988 1649.01 864.722C1657.39 868.495 1660.82 869.522 1669.78 871.549C1684.27 873.831 1693.27 871.676 1707.34 868.552C1708.37 868.03 1712.71 866.743 1714.05 866.316C1720.29 863.799 1724.53 860.49 1730.01 856.625C1732.41 854.253 1734 852.079 1737.17 851.31C1746.13 853.53 1766.64 879.026 1774.91 887.145C1761.29 906.102 1731.08 917.127 1708.78 922.326C1694.67 925.207 1685.27 925.606 1670.91 924.255C1669.44 924.116 1656.45 922.973 1655.57 923.086L1650.63 921.606C1637.82 918.749 1629.78 916.152 1617.74 911.082L1611.67 908.355L1609.05 906.84C1596.72 900.256 1584.66 889.686 1576.33 878.466L1573.65 875.329C1573.42 872.321 1571.01 869.548 1569.23 866.946C1565.28 861.77 1559.79 848.751 1558.73 842.061C1557.35 839.221 1557.2 837.45 1556.61 834.312C1555.16 824.615 1554.46 818.338 1553.99 808.55C1553.39 779.933 1559.79 761.98 1575.44 738.768L1580.6 732.283C1607.67 705.528 1629.21 698.297 1666.24 694.081ZM1726.93 785.625C1723.72 772.906 1711.21 757.96 1699.72 751.435C1692.23 747.306 1683.99 744.739 1675.48 743.889C1645.43 742.078 1627.04 761.675 1618.09 788.791C1628.13 788.789 1723.28 789.734 1725.58 787.542C1726.59 786.581 1726.23 786.977 1726.93 785.625Z"/><path fill="#052B48" transform="matrix(1.04579 0 0 1.0468 -980.954 -609.236)" d="M1666.24 694.081C1673.61 694.2 1680.53 694.355 1687.9 694.985C1702.58 697.648 1716.88 700.993 1730.11 708.278C1720.2 709.106 1713.83 704.443 1705.71 703.774C1688.77 702.377 1626.34 703.657 1613.73 711.965L1612.59 714.011C1615.32 719.642 1617.99 716.622 1617.42 719.799C1608.56 720.593 1604.1 715.923 1598.63 720.672C1596.12 727.297 1603.82 733.043 1597.48 736.102C1593.47 738.035 1589.17 734.961 1584.56 737.905C1581.76 745.041 1587.87 748.523 1582.17 752.782L1580.92 752.381C1575.76 750.754 1570.84 749.744 1567.93 755.845C1568.04 760.004 1569.82 763.561 1569.72 766.602C1569.45 774.967 1567.92 783.666 1567.46 792.012C1566.28 813.455 1566 834.986 1568.82 856.318C1569.31 859.953 1569.66 863.279 1569.23 866.946C1565.28 861.77 1559.79 848.751 1558.73 842.061C1557.35 839.221 1557.2 837.45 1556.61 834.312C1555.16 824.615 1554.46 818.338 1553.99 808.55C1553.39 779.933 1559.79 761.98 1575.44 738.768L1580.6 732.283C1607.67 705.528 1629.21 698.297 1666.24 694.081Z"/><path fill="#063A5C" transform="matrix(1.04579 0 0 1.0468 -980.954 -609.236)" d="M1556.61 834.312C1559.65 821.821 1554.71 795.076 1560.86 784.532L1562.51 784.333C1567.15 789.296 1566 833.735 1561.99 841.77C1561.57 842.615 1559.84 842.133 1558.73 842.061C1557.35 839.221 1557.2 837.45 1556.61 834.312Z"/><path fill="#03233B" transform="matrix(1.04579 0 0 1.0468 -980.954 -609.236)" d="M1730.01 856.625C1732.41 854.253 1734 852.079 1737.17 851.31C1746.13 853.53 1766.64 879.026 1774.91 887.145C1761.29 906.102 1731.08 917.127 1708.78 922.326C1694.67 925.207 1685.27 925.606 1670.91 924.255C1669.44 924.116 1656.45 922.973 1655.57 923.086L1650.63 921.606C1637.82 918.749 1629.78 916.152 1617.74 911.082C1619.88 910.585 1631.2 911.582 1636.16 911.412C1669.13 910.284 1709.4 917.94 1740.8 907.886C1743.97 906.869 1744.32 900.889 1745.01 897.657C1748.69 894.141 1770.39 895.893 1762.79 882.903C1758.22 879.772 1751.31 881.712 1747.33 879.899C1740.71 876.88 1743.87 859.515 1737.61 856.209C1734.42 856.846 1733.22 857.011 1730.01 856.625Z"/><path fill="#063454" transform="matrix(1.04579 0 0 1.0468 -980.954 -609.236)" d="M1650.63 921.606L1650.3 918.282C1656.05 914.134 1702.12 915.069 1710.34 916.583C1710.17 919.406 1709.87 919.818 1708.78 922.326C1694.67 925.207 1685.27 925.606 1670.91 924.255C1669.44 924.116 1656.45 922.973 1655.57 923.086L1650.63 921.606Z"/><path fill="#03233B" transform="matrix(1.04579 0 0 1.0468 -980.954 -609.236)" d="M1615.77 818.156C1622.07 814.347 1643.75 815.87 1652.42 815.984L1722.39 815.931C1740.09 815.914 1761.18 815.562 1778.59 817.963C1766.68 819.144 1756.66 820.06 1744.68 820.178C1738.56 821.715 1732.85 818.866 1727.93 821.9C1728.21 823.819 1728.28 823.948 1728.98 825.766C1746.23 826.027 1772.27 824.898 1788.14 826.045C1780.92 827.68 1761.37 827.201 1752.87 827.211L1661.47 827.468C1653.02 827.542 1628.47 827.218 1621.55 828.813L1620.53 830.463C1621.28 832.877 1621.65 833.954 1622.66 836.257C1621.42 838.388 1622.29 837.547 1619.73 838.567L1618.48 837.755C1616.65 834.463 1616.54 831.323 1616 827.547C1616.2 823.625 1616.21 822.048 1615.77 818.156Z"/><path fill="#052B48" transform="matrix(1.04579 0 0 1.0468 -980.954 -609.236)" d="M1647.34 820.055C1672.23 819.599 1697.13 819.524 1722.03 819.83C1725.85 819.877 1741.6 819.676 1744.68 820.178C1738.56 821.715 1732.85 818.866 1727.93 821.9C1728.21 823.819 1728.28 823.948 1728.98 825.766C1699.36 824.675 1661.64 825.734 1631.69 825.877C1639.08 824.42 1640.76 823.541 1647.34 820.055Z"/><path fill="#052B48" transform="matrix(1.04579 0 0 1.0468 -980.954 -609.236)" d="M1731.33 708.752C1739.75 712.567 1743.62 715.319 1751.14 720.65L1756.13 725.163C1761.28 731.266 1769.06 739.747 1771.86 746.994L1767.3 745.76C1765.06 746.63 1764.58 747.878 1763.2 749.915L1762.64 750.749L1761.33 750.767C1759.4 747.952 1759.53 744.511 1758.94 740.943C1757.41 731.567 1751.63 738.629 1745.46 734.575C1741.05 727.282 1747.85 727.732 1746.99 722.091C1742.2 718.515 1730.63 719.969 1724.45 720.325C1729.57 715.906 1731.39 715.74 1731.33 708.752Z"/><path fill="#052B48" transform="matrix(1.04579 0 0 1.0468 -980.954 -609.236)" d="M1576.33 878.466L1580.21 877.192C1581.71 872.157 1580.29 868.236 1582.02 866.298L1583.28 866.939C1584.33 872.112 1582.96 876.852 1584.58 879.73C1589.63 880.469 1592.72 879.165 1597.24 881.473C1602.11 887.722 1599.77 894.706 1607.43 895.717C1612.08 896.331 1611.86 895.218 1615.55 897.664C1615.95 900.437 1616.34 899.338 1615.17 901.296C1610.85 900.719 1612.32 900.291 1609.02 902.242C1609.05 903.417 1609.19 905.785 1609.05 906.84C1596.72 900.256 1584.66 889.686 1576.33 878.466Z"/><path fill="#03233B" transform="matrix(1.04579 0 0 1.0468 -980.954 -609.236)" d="M1669.78 871.549C1684.27 873.831 1693.27 871.676 1707.34 868.552L1707.81 870.424L1704.39 873.819C1707.42 876.722 1715.07 875.428 1716.05 879.48C1710.06 880.977 1661.99 879.75 1654.52 878.634L1653.46 877.566L1650.35 877.663C1656.18 876.603 1662.9 876.548 1668 875.245C1668.12 874.159 1668.29 873.175 1668.55 872.11L1669.78 871.549Z"/><path fill="#052B48" transform="matrix(1.04579 0 0 1.0468 -980.954 -609.236)" d="M1616 827.547C1605.28 803.06 1641.39 812.613 1652.42 815.984C1643.75 815.87 1622.07 814.347 1615.77 818.156C1616.21 822.048 1616.2 823.625 1616 827.547Z"/><path fill="#03233B" transform="matrix(1.04579 0 0 1.0468 -980.954 -609.236)" d="M1633.29 852.078C1638.46 856.963 1642.9 860.988 1649.01 864.722C1640.24 868.924 1627.09 864.006 1633.29 852.078Z"/><defs><linearGradient id="gradient_1" gradientUnits="userSpaceOnUse" x1="1708.6851" y1="777.6507" x2="1716.324" y2="767.64697"><stop offset="0" stop-color="#FFFFFD" stop-opacity="0"/><stop offset="1" stop-color="#F2F9F6" stop-opacity="0.031372551"/></linearGradient></defs><path fill="url(#gradient_1)" transform="matrix(1.04579 0 0 1.0468 -980.954 -609.236)" d="M1699.72 751.435C1711.21 757.96 1723.72 772.906 1726.93 785.625L1721.05 785.726C1717.01 783.69 1711.85 779.777 1709.35 775.957C1710.12 770.822 1710.16 771.835 1707.94 767.934L1704.63 767.234L1704.03 764.94C1701.74 761.933 1700.93 755.805 1699.72 751.435Z"/><path fill="#052B48" transform="matrix(1.04579 0 0 1.0468 -980.954 -609.236)" d="M1627.41 795.967L1628.46 796.093C1648.11 798.364 1676.35 796.144 1696.53 796.886C1706.85 797.265 1718.04 795.647 1728.48 798.492L1727.64 799.029L1727.37 798.304L1726.42 799.21C1697.09 801.832 1656.09 799.03 1624.82 800.497L1627.41 795.967Z"/><path fill="#F7FBF8" fill-opacity="0.011764706" transform="matrix(1.04579 0 0 1.0468 -980.954 -609.236)" d="M1675.48 743.889C1683.99 744.739 1692.23 747.306 1699.72 751.435C1700.93 755.805 1701.74 761.933 1704.03 764.94C1697.02 763.016 1699.99 759.863 1694.28 754.866C1691.47 752.414 1692.55 755.127 1689.21 755.886C1687.66 745.905 1681.35 752.07 1675.48 743.889Z"/><path fill="#03233B" transform="matrix(1.04579 0 0 1.0468 -980.954 -609.236)" d="M1624.82 800.497C1620.29 800.032 1620.53 800.431 1618.18 797.777L1618.52 795.657L1620.92 794.058C1625.06 794.026 1623.53 793.819 1627.41 795.967L1624.82 800.497Z"/><path fill="#063454" transform="matrix(1.04579 0 0 1.0468 -980.954 -609.236)" d="M1526.52 694.288C1531.25 694.542 1530.55 693.78 1533.74 696.131C1535.98 702.863 1534.26 742.387 1532.67 751.616C1531.85 756.38 1520.29 754.589 1516.05 754.504C1505.35 754.292 1494.69 757.051 1484.93 761.754L1478.97 765.395C1469.16 775.103 1465.97 779.806 1461.13 792.881L1458.29 805.08C1457.9 809.765 1457.6 813.563 1457.61 818.28L1459.29 920.427C1437.36 920.682 1415.42 920.746 1393.48 920.619L1393.23 905.037C1391.14 855.322 1394.5 801.542 1393.19 751.516C1392.88 739.637 1394.7 708.368 1392.46 699.072C1397.02 696.531 1447.93 695.491 1452.87 699.8C1454.74 701.435 1455.18 718.875 1456.53 724.175L1458.25 723.802C1466.25 713.867 1478.41 706.304 1490.14 701.574C1502.43 697.23 1513.7 695.512 1526.52 694.288Z"/><path fill="#052B48" transform="matrix(1.04579 0 0 1.0468 -980.954 -609.236)" d="M1392.46 699.072C1397.02 696.531 1447.93 695.491 1452.87 699.8C1454.74 701.435 1455.18 718.875 1456.53 724.175L1453.9 726.197C1446.49 724.733 1454.39 708.75 1447.38 703.672C1439.43 704.586 1431.1 706.299 1423.2 706.914C1418.69 707.265 1400.51 703.049 1397.35 704.579C1395.74 717.586 1396.76 732.189 1396.88 745.379C1397.29 793.473 1396.38 841.565 1396.55 889.648C1396.57 895.127 1397.58 904.109 1399.17 909.112L1400.98 910.481C1402.87 909.273 1403.23 908.42 1404.45 906.582C1415.95 909.129 1426.75 909.751 1438.21 912.923C1443.95 913.21 1450.12 913.175 1455.9 913.243C1455.99 898.394 1454.83 878.268 1455.85 864.052C1453.31 856.422 1453.85 772.325 1458.68 767.275C1464 766.07 1462.88 767.635 1468.9 768.425C1473.27 765.734 1473.92 765.664 1478.97 765.395C1469.16 775.103 1465.97 779.806 1461.13 792.881L1458.29 805.08C1457.9 809.765 1457.6 813.563 1457.61 818.28L1459.29 920.427C1437.36 920.682 1415.42 920.746 1393.48 920.619L1393.23 905.037C1391.14 855.322 1394.5 801.542 1393.19 751.516C1392.88 739.637 1394.7 708.368 1392.46 699.072Z"/><path fill="#03233B" transform="matrix(1.04579 0 0 1.0468 -980.954 -609.236)" d="M1526.52 694.288C1531.25 694.542 1530.55 693.78 1533.74 696.131C1535.98 702.863 1534.26 742.387 1532.67 751.616C1531.85 756.38 1520.29 754.589 1516.05 754.504C1505.35 754.292 1494.69 757.051 1484.93 761.754C1485.72 757.623 1486.42 757.819 1484.92 754.92C1481.81 753.378 1478.55 754.62 1474.9 755.366L1474.29 754.058C1476.28 752.65 1501.12 748.924 1504.79 748.351C1509.46 747.622 1520.76 753.786 1527.01 750.854C1533.2 743.889 1532 711.899 1526.62 706.419C1519.79 712.148 1523.97 733.917 1522.76 742.624C1522.16 746.966 1521.81 748.513 1520.54 752.81C1519.56 738.456 1519.79 721.242 1519.64 706.665C1513.07 705.117 1501.07 701.916 1494.63 703.022C1484.57 704.748 1487.05 713.45 1488.53 720.681C1480.16 721.525 1474.17 721.155 1465.84 720.804C1463.77 724.492 1461.47 729.557 1457.07 730.391C1456.35 726.781 1456.62 727.839 1458.25 723.802C1466.25 713.867 1478.41 706.304 1490.14 701.574C1502.43 697.23 1513.7 695.512 1526.52 694.288Z"/><path fill="#03233B" transform="matrix(1.04579 0 0 1.0468 -980.954 -609.236)" d="M1270.52 697.335C1292.34 697.211 1314.16 697.284 1335.98 697.554C1335.42 749.928 1335.36 802.306 1335.79 854.681C1335.85 873.665 1336.18 899.611 1335.31 919.178C1334.81 919.964 1334.31 920.749 1333.81 921.535L1269.91 921.316L1270.23 763.805C1270.3 749.778 1270.19 735.75 1269.89 721.726C1269.79 717.052 1268.68 700.674 1270.52 697.335Z"/><path fill="#063454" transform="matrix(1.04579 0 0 1.0468 -980.954 -609.236)" d="M1271.98 701.928C1289.28 704.724 1312.92 703.368 1330.27 701.493C1327.87 748.217 1330.6 796.1 1328.6 842.992C1328.04 856.101 1330.89 880.926 1328.1 892.255C1328.07 899.983 1330.92 909.227 1324.33 913.166C1315.11 912.392 1307.85 912.068 1298.68 912.118C1292.02 912.154 1278.57 913.212 1272.94 912.329C1271.66 892.069 1272.74 869.544 1272.48 849C1271.86 800.4 1273.56 750.405 1271.98 701.928Z"/><path fill="#052B48" transform="matrix(1.04579 0 0 1.0468 -980.954 -609.236)" d="M1271.98 701.928C1289.28 704.724 1312.92 703.368 1330.27 701.493C1327.87 748.217 1330.6 796.1 1328.6 842.992C1328.04 856.101 1330.89 880.926 1328.1 892.255C1326.25 878.988 1327.42 834.394 1327.79 818.173C1328.59 781.975 1326.14 738.579 1328.17 703.089C1302.15 708.916 1304.16 705.431 1280.91 704.507L1281.03 815.395C1281.36 846.02 1282.8 878.587 1279.99 908.937C1298.54 907.957 1307.89 904.808 1324.33 913.166C1315.11 912.392 1307.85 912.068 1298.68 912.118C1292.02 912.154 1278.57 913.212 1272.94 912.329C1271.66 892.069 1272.74 869.544 1272.48 849C1271.86 800.4 1273.56 750.405 1271.98 701.928Z"/><path fill="#063454" transform="matrix(1.04579 0 0 1.0468 -980.954 -609.236)" d="M1264 620.117C1285.22 575.987 1358.04 599.628 1338.15 647.684L1333.63 653.819C1327.39 660.911 1320.67 665.152 1311.33 667.139L1309.85 667.792C1305.64 668.254 1300.65 668.092 1296.36 668.089C1290.93 666.637 1288.75 666.077 1283.69 663.71C1280.03 662.971 1274.88 659.254 1272.31 656.602L1268.86 653.638C1262.26 645.563 1263.52 639.745 1261.5 630.627L1261.35 629.973L1264 620.117Z"/><path fill="#052B48" transform="matrix(1.04579 0 0 1.0468 -980.954 -609.236)" d="M1264 620.117C1285.22 575.987 1358.04 599.628 1338.15 647.684L1333.63 653.819C1327.39 660.911 1320.67 665.152 1311.33 667.139L1309.85 667.792C1305.64 668.254 1300.65 668.092 1296.36 668.089C1290.93 666.637 1288.75 666.077 1283.69 663.71C1280.03 662.971 1274.88 659.254 1272.31 656.602C1275.96 655.628 1275.04 656.436 1277.05 653.891C1277.32 648.759 1277.99 645.3 1278.9 640.261L1279.37 641.159L1278.59 641.288L1279.4 641.536C1280.25 646.604 1280.01 650.381 1279.9 655.498C1292.01 655.71 1317.14 656.649 1327.93 654.608C1327.81 643.012 1327.28 628.833 1328.69 617.446C1330.33 604.128 1286.75 607.48 1277.18 608.243L1275.67 610.425C1276.96 615.753 1286.67 619.114 1277.18 622.448C1272.22 620.855 1272.67 620.445 1267.66 621.46L1266.78 621.63L1265.39 621.92L1264 620.117Z"/><path fill="#063454" transform="matrix(1.04579 0 0 1.0468 -980.954 -609.236)" d="M1283.69 663.71C1288.37 659.598 1304.06 658.891 1309.85 662.179C1311.31 663.998 1311.15 664.819 1311.33 667.139L1309.85 667.792C1305.64 668.254 1300.65 668.092 1296.36 668.089C1290.93 666.637 1288.75 666.077 1283.69 663.71Z"/><path fill="#063A5C" transform="matrix(1.04579 0 0 1.0468 -980.954 -609.236)" d="M1333.63 653.819C1329.54 650.665 1329.19 642.643 1333.7 639.184L1335.56 639.484C1338.32 643.254 1337.52 642.563 1338.15 647.684L1333.63 653.819Z"/><path fill="#EDF6F3" fill-opacity="0.078431375" transform="matrix(1.04579 0 0 1.0468 -980.954 -609.236)" d="M1391.51 922.406L1391.46 763.426C1391.46 755.069 1390.8 704.748 1392.46 699.072C1394.7 708.368 1392.88 739.637 1393.19 751.516C1394.5 801.542 1391.14 855.322 1393.23 905.037L1393.48 920.619C1415.42 920.746 1437.36 920.682 1459.29 920.427L1457.61 818.28C1457.6 813.563 1457.9 809.765 1458.29 805.08L1459.72 808.955C1462.7 809.645 1463.19 809.117 1466.17 807.762C1471.07 810.974 1464.16 823.66 1464.85 827.895C1467.02 841.074 1469.97 848.825 1465.69 862.321C1465.44 863.094 1466.79 869.139 1466.45 870.463C1466.1 881.16 1468.64 916.188 1467.01 924.647C1462.05 924.12 1457.24 924.94 1451.03 924.175C1432.01 921.831 1410.51 922.453 1391.51 922.406Z"/><path fill="#F7FBF8" fill-opacity="0.011764706" transform="matrix(1.04579 0 0 1.0468 -980.954 -609.236)" d="M2060.8 676.172C2062.06 676.622 2065.25 677.298 2065.88 678.426C2067.75 681.825 2066.47 711.006 2066.55 717.499C2066.7 729.978 2068.3 742.377 2068.55 754.844C2068.89 771.967 2067.56 848.626 2062.45 861.754C2062.33 862.058 2062.19 862.356 2062.06 862.657C2061.12 800.386 2063.31 739.008 2060.8 676.172Z"/><path fill="#F7FBF8" fill-opacity="0.027450981" transform="matrix(1.04579 0 0 1.0468 -980.954 -609.236)" d="M2163.74 899.834C2129.32 900.102 2134.83 857.192 2120.8 837.922C2116.79 837.445 2115.75 837.582 2112.35 835.662C2112.66 830.098 2113.69 823.051 2114.63 817.587C2115.75 811.087 2113.23 779.234 2115.45 775.643C2119.07 774.205 2122.57 775.34 2126.58 776.035C2112.76 823.214 2126.97 867.498 2163.74 899.834Z"/><path fill="#F7FBF8" fill-opacity="0.011764706" transform="matrix(1.04579 0 0 1.0468 -980.954 -609.236)" d="M2025.61 730.454C2025.1 723.348 2026.39 721.148 2026.75 714.446C2026.75 712.259 2021.53 705.626 2021.85 704.114C2023.29 697.483 2025 695.702 2022.89 688.952C2016.76 669.318 2016.36 629.614 2024.2 611.846L2027.75 610.775C2028.7 645.555 2027.81 681.271 2027.8 716.131C2027.8 721.025 2027.57 726.212 2027.11 731.077L2025.61 730.454Z"/><defs><linearGradient id="gradient_2" gradientUnits="userSpaceOnUse" x1="1472.385" y1="864.65131" x2="1465.4647" y2="864.34198"><stop offset="0" stop-color="#FDFEFB" stop-opacity="0"/><stop offset="1" stop-color="#FDFEFB" stop-opacity="0.035294119"/></linearGradient></defs><path fill="url(#gradient_2)" transform="matrix(1.04579 0 0 1.0468 -980.954 -609.236)" d="M1461.13 792.881C1461.26 796.972 1460.85 803.699 1462.74 806.744C1469.95 806.706 1475.35 814.871 1475.95 821.23C1470.28 827.8 1470.11 826.313 1469.99 834.32C1469.79 847.343 1475.11 916.68 1470.24 921.625L1470.15 923.417C1468.96 923.94 1468.26 924.33 1467.01 924.647C1468.64 916.188 1466.1 881.16 1466.45 870.463C1466.79 869.139 1465.44 863.094 1465.69 862.321C1469.97 848.825 1467.02 841.074 1464.85 827.895C1464.16 823.66 1471.07 810.974 1466.17 807.762C1463.19 809.117 1462.7 809.645 1459.72 808.955L1458.29 805.08L1461.13 792.881Z"/><path fill="#F7FBF8" fill-opacity="0.043137256" transform="matrix(1.04579 0 0 1.0468 -980.954 -609.236)" d="M1605.47 708.087C1609.28 705.669 1611.45 703.261 1614.75 700.305C1628.48 687.99 1647.88 692.725 1666.24 694.081C1629.21 698.297 1607.67 705.528 1580.6 732.283C1578 728.029 1577.25 726.638 1571.71 728.229C1569.45 731.079 1570.11 729.882 1569.69 733.868L1570.15 734.787L1567.89 734.476L1566.83 732.967C1569.05 724.902 1581.68 723.312 1590.09 717.097C1591.63 713.828 1591.82 713.163 1594.14 710.484C1598.07 708.261 1601.02 708.399 1605.47 708.087Z"/><path fill="#EDF6F3" fill-opacity="0.070588239" transform="matrix(1.04579 0 0 1.0468 -980.954 -609.236)" d="M1714.05 866.316C1716.51 854.889 1719.8 857.509 1728.88 851.748C1733.42 848.867 1737.23 845.408 1742.94 847.298C1759.2 852.602 1773.72 869.878 1774.91 887.145C1766.64 879.026 1746.13 853.53 1737.17 851.31C1734 852.079 1732.41 854.253 1730.01 856.625C1724.53 860.49 1720.29 863.799 1714.05 866.316Z"/><path fill="#EDF6F3" fill-opacity="0.078431375" transform="matrix(1.04579 0 0 1.0468 -980.954 -609.236)" d="M2589.89 711.498C2596.75 711.189 2599.83 713.795 2605.64 715.801C2616.73 719.63 2621.35 725.855 2626.29 735.69C2632.29 747.64 2641.09 762.292 2637.66 775.825C2629.91 747.172 2614.45 727.596 2589.89 711.498Z"/><path fill="#F7FBF8" fill-opacity="0.047058824" transform="matrix(1.04579 0 0 1.0468 -980.954 -609.236)" d="M1573.65 875.329C1571.51 873.771 1566.44 865.805 1564.29 866.582C1561.61 867.549 1564.86 868.296 1560.11 867.959C1555.91 865.037 1554.02 861.62 1552.96 856.677C1552.15 857.82 1552.59 857.31 1551.64 858.221C1549.3 850.308 1551.15 816.737 1553.99 808.55C1554.46 818.338 1555.16 824.615 1556.61 834.312C1557.2 837.45 1557.35 839.221 1558.73 842.061C1559.79 848.751 1565.28 861.77 1569.23 866.946C1571.01 869.548 1573.42 872.321 1573.65 875.329Z"/><path fill="#F7FBF8" fill-opacity="0.023529412" transform="matrix(1.04579 0 0 1.0468 -980.954 -609.236)" d="M2638.17 841.945C2639.98 865.871 2637.59 898.58 2605.28 896.48L2609.26 892.731C2613.16 888.999 2615.43 886.206 2618.85 882.008L2619.27 888.798L2620.61 889.4C2624.87 888.29 2629.56 880.517 2629.65 876.26C2627.25 876.849 2624.68 877.168 2622.22 877.543C2624.19 874.598 2625.37 872.353 2626.99 869.239C2630.23 867.087 2636.54 847.108 2638.17 841.945Z"/><path fill="#F7FBF8" fill-opacity="0.027450981" transform="matrix(1.04579 0 0 1.0468 -980.954 -609.236)" d="M1687.9 694.985C1695.15 694.147 1701.12 695.36 1707.48 694.722C1707.21 694.749 1711.9 690.176 1713.71 691.068C1723.82 696.049 1749.7 709.017 1751.14 720.65C1743.62 715.319 1739.75 712.567 1731.33 708.752L1730.11 708.278C1716.88 700.993 1702.58 697.648 1687.9 694.985Z"/><path fill="#EDF6F3" fill-opacity="0.05882353" transform="matrix(1.04579 0 0 1.0468 -980.954 -609.236)" d="M2415.56 862.903C2417.44 865.888 2420.03 869.648 2421.34 872.826C2425.17 877.718 2429.07 882.973 2433.41 887.373C2437.91 892.649 2440.64 894.728 2446.11 899.127L2449.72 902.811C2438.61 900.613 2427.98 894.118 2419.2 887.224C2411.73 871.806 2415.97 878.398 2415.56 862.903Z"/><path fill="#EDF6F3" fill-opacity="0.070588239" transform="matrix(1.04579 0 0 1.0468 -980.954 -609.236)" d="M2348.29 861.796L2349.42 860.221C2349.35 863.66 2349.12 867.77 2349.92 871.101C2351.97 879.746 2345.21 883.919 2341.27 889.884C2338.65 891.524 2319.42 900.518 2316.01 901.742L2326.78 892.086C2335.55 883.776 2342.53 872.297 2348.29 861.796Z"/><path fill="#F7FBF8" fill-opacity="0.047058824" transform="matrix(1.04579 0 0 1.0468 -980.954 -609.236)" d="M1879.86 710.442C1879.74 709.314 1879.75 707.961 1879.72 706.807C1891.54 690.952 1912.96 690.402 1930.59 692.735L1931.29 694.793C1916.29 697.106 1909.1 698.425 1894.78 703.668L1879.86 710.442Z"/><path fill="#EDF6F3" fill-opacity="0.039215688" transform="matrix(1.04579 0 0 1.0468 -980.954 -609.236)" d="M1929.8 923.946C1933.47 926.061 1934.43 925.468 1938.54 925.798L1938.96 927.103C1930.74 928.503 1891 929.236 1889.11 919.458C1892.03 917.299 1894.74 917.954 1899 917.746C1909.71 921.471 1918.57 922.753 1929.8 923.946Z"/><path fill="#F7FBF8" fill-opacity="0.035294119" transform="matrix(1.04579 0 0 1.0468 -980.954 -609.236)" d="M1611.67 908.355L1617.74 911.082C1629.78 916.152 1637.82 918.749 1650.63 921.606L1655.57 923.086C1645.25 923.191 1644.07 923.623 1634.37 927.127C1624.02 923.623 1615.23 919.502 1611.67 908.355Z"/><path fill="#F7FBF8" fill-opacity="0.039215688" transform="matrix(1.04579 0 0 1.0468 -980.954 -609.236)" d="M1838.69 864.129C1839.3 865.13 1841.16 868.02 1841.51 868.928C1841.64 876.93 1841.74 887.905 1850.48 891.028C1852.99 890.665 1854.54 890.355 1856.99 889.757C1863.47 894.709 1868.93 900.318 1875.29 905.419C1865.92 904.868 1862.69 907.255 1854.34 900.274C1840.34 888.572 1840.85 879.356 1838.69 864.129Z"/><path fill="#F7FBF8" fill-opacity="0.019607844" transform="matrix(1.04579 0 0 1.0468 -980.954 -609.236)" d="M1274.45 671.89L1273.33 670.771C1264.48 661.931 1255.86 642.098 1261.35 629.973L1261.5 630.627C1263.52 639.745 1262.26 645.563 1268.86 653.638C1265.71 675.922 1281.32 668.789 1296.36 668.089C1300.65 668.092 1305.64 668.254 1309.85 667.792C1302.72 675.579 1283.95 672.983 1274.45 671.89Z"/><path fill="#F7FBF8" fill-opacity="0.015686275" transform="matrix(1.04579 0 0 1.0468 -980.954 -609.236)" d="M2515.41 694.91C2522.6 688.759 2568.53 688.121 2568.51 700.167L2566.06 701.364C2555.06 695.525 2528.31 694.608 2515.41 694.91Z"/><path fill="#EDF6F3" fill-opacity="0.023529412" transform="matrix(1.04579 0 0 1.0468 -980.954 -609.236)" d="M1490.14 701.574C1489.24 699.903 1489.16 699.969 1487.67 698.888C1487.81 697.213 1487.69 697.997 1488.82 696.361C1485.83 696.551 1481.87 697.288 1479.58 695.727L1479.83 694.291C1487.57 688.965 1517.05 692.298 1526.52 694.288C1513.7 695.512 1502.43 697.23 1490.14 701.574Z"/><path fill="#EDF6F3" fill-opacity="0.078431375" transform="matrix(1.04579 0 0 1.0468 -980.954 -609.236)" d="M1756.13 725.163C1766.06 727.353 1775.65 722.893 1775.18 741.235C1775.07 745.478 1775.22 749.962 1775.76 754.183C1774.51 751.759 1773.21 749.362 1771.86 746.994C1769.06 739.747 1761.28 731.266 1756.13 725.163Z"/><path fill="#EDF6F3" fill-opacity="0.035294119" transform="matrix(1.04579 0 0 1.0468 -980.954 -609.236)" d="M1268.86 653.638L1272.31 656.602C1274.88 659.254 1280.03 662.971 1283.69 663.71C1288.75 666.077 1290.93 666.637 1296.36 668.089C1281.32 668.789 1265.71 675.922 1268.86 653.638Z"/><path fill="#EDF6F3" fill-opacity="0.074509807" transform="matrix(1.04579 0 0 1.0468 -980.954 -609.236)" d="M1841.51 868.928C1843.58 872.049 1846.09 876.174 1848.62 878.811C1851.26 882.243 1853.48 885.34 1856.7 888.276L1856.99 889.757C1854.54 890.355 1852.99 890.665 1850.48 891.028C1841.74 887.905 1841.64 876.93 1841.51 868.928Z"/><path fill="#F7FBF8" fill-opacity="0.015686275" transform="matrix(1.04579 0 0 1.0468 -980.954 -609.236)" d="M2349.42 860.221C2350.24 857.636 2351.52 855.356 2352.75 852.939C2356.05 866.727 2356.06 883.1 2341.27 889.884C2345.21 883.919 2351.97 879.746 2349.92 871.101C2349.12 867.77 2349.35 863.66 2349.42 860.221Z"/><path fill="#EDF6F3" fill-opacity="0.039215688" transform="matrix(1.04579 0 0 1.0468 -980.954 -609.236)" d="M2622.22 877.543C2624.68 877.168 2627.25 876.849 2629.65 876.26C2629.56 880.517 2624.87 888.29 2620.61 889.4L2619.27 888.798L2618.85 882.008C2619.91 880.506 2621.1 879.006 2622.22 877.543Z"/><defs><linearGradient id="gradient_3" gradientUnits="userSpaceOnUse" x1="1576.77" y1="732.45331" x2="1573.4265" y2="728.62726"><stop offset="0" stop-color="#F0F9F5" stop-opacity="0.019607844"/><stop offset="1" stop-color="#EAF3F1" stop-opacity="0.05882353"/></linearGradient></defs><path fill="url(#gradient_3)" transform="matrix(1.04579 0 0 1.0468 -980.954 -609.236)" d="M1570.15 734.787L1569.69 733.868C1570.11 729.882 1569.45 731.079 1571.71 728.229C1577.25 726.638 1578 728.029 1580.6 732.283L1575.44 738.768C1572.7 734.727 1574.17 735.605 1570.15 734.787Z"/><path fill="#F7FBF8" fill-opacity="0.015686275" transform="matrix(1.04579 0 0 1.0468 -980.954 -609.236)" d="M2412.86 858.558L2414.61 860.785L2415.56 862.903C2415.97 878.398 2411.73 871.806 2419.2 887.224C2408.36 881.439 2412.4 868.749 2412.86 858.558Z"/><path fill="#063454" transform="matrix(1.04579 0 0 1.0468 -980.954 -609.236)" d="M2767.74 704.412C2783.6 695.965 2798.59 695.523 2816 695.578L2816 704.433L2816 719.867L2816 727.154C2803.64 726.721 2796.59 726.74 2784.22 729.459L2778.22 731.384C2767.26 736.836 2759.99 741.005 2751.34 749.881L2750.63 751.373C2744.83 758.444 2736.15 778.836 2734.98 788.015C2733.48 793.439 2733.16 804.685 2732.83 810.803C2731.54 844.822 2734.01 885.553 2733.8 921.054C2723.57 921.531 2712.3 921.247 2701.97 921.177C2701.55 911.785 2701.81 901.18 2701.88 891.689C2702.38 827.166 2699.82 761.929 2701.47 697.44C2711.25 697.135 2722.49 697.44 2732.38 697.485C2732.1 709.56 2732.02 722.399 2731.06 734.371C2732.37 734.161 2734.41 733.76 2735.21 732.729C2741.83 724.204 2743.39 720.054 2752.24 713.251L2753.05 712.664L2758.32 709.507L2759.08 708.979C2762.57 706.49 2763.74 706.049 2767.74 704.412Z"/><path fill="#063454" transform="matrix(1.04579 0 0 1.0468 -980.954 -609.236)" d="M2767.74 704.412C2783.6 695.965 2798.59 695.523 2816 695.578L2816 704.433L2816 719.867L2816 727.154C2803.64 726.721 2796.59 726.74 2784.22 729.459C2779.59 721.818 2761.89 723.476 2750.52 716.68L2752.24 713.251L2753.05 712.664L2758.32 709.507L2759.08 708.979C2762.57 706.49 2763.74 706.049 2767.74 704.412Z"/><path fill="#052B48" transform="matrix(1.04579 0 0 1.0468 -980.954 -609.236)" d="M2758.32 709.507L2759.08 708.979C2764.01 713.077 2760.22 715.336 2770.17 718.578C2785.25 723.493 2800.66 719.985 2816 719.867L2816 727.154C2803.64 726.721 2796.59 726.74 2784.22 729.459C2779.59 721.818 2761.89 723.476 2750.52 716.68L2752.24 713.251L2753.05 712.664L2758.32 709.507Z"/><path fill="#03233B" transform="matrix(1.04579 0 0 1.0468 -980.954 -609.236)" d="M2753.05 712.664L2758.32 709.507C2759.45 711.432 2759.62 711.392 2759.81 713.569L2760.66 714.317C2763.31 716.695 2764.15 717.061 2765.05 720.427L2764.41 721.045L2764.44 718.076L2763.73 720.889C2758.5 718.303 2757.19 716.742 2753.05 712.664Z"/><path fill="#03233B" transform="matrix(1.04579 0 0 1.0468 -980.954 -609.236)" d="M2767.74 704.412C2783.6 695.965 2798.59 695.523 2816 695.578L2816 704.433C2804.6 701.919 2773.99 706.389 2767.74 704.412Z"/><path fill="#052B48" transform="matrix(1.04579 0 0 1.0468 -980.954 -609.236)" d="M2701.47 697.44C2711.25 697.135 2722.49 697.44 2732.38 697.485C2732.1 709.56 2732.02 722.399 2731.06 734.371C2728.07 729.008 2729.81 708.889 2729.79 701.611C2721.08 702.493 2713.48 703.272 2704.7 703.498C2704.71 723.823 2703 901.584 2705.93 909.17C2710.55 913.293 2714.03 911.016 2719.55 909.305L2718.18 911.298L2721.46 911.007C2722.54 908.686 2722.19 907.053 2722.06 904.488L2722.46 903.885C2723.09 908.193 2722.61 909.967 2725 913.012C2737.68 911.604 2724.96 823.572 2732.83 810.803C2731.54 844.822 2734.01 885.553 2733.8 921.054C2723.57 921.531 2712.3 921.247 2701.97 921.177C2701.55 911.785 2701.81 901.18 2701.88 891.689C2702.38 827.166 2699.82 761.929 2701.47 697.44Z"/><path fill="#03233B" transform="matrix(1.04579 0 0 1.0468 -980.954 -609.236)" d="M2704.15 913.429C2711.07 912.821 2719.01 910.949 2724.21 915.998C2718.24 918.496 2709.34 917.278 2704.15 913.429Z"/><path fill="#052B48" transform="matrix(1.04579 0 0 1.0468 -980.954 -609.236)" d="M2734.98 788.015C2734.07 779.218 2732.26 761.673 2737.83 754.435C2740.3 751.23 2746.76 751.552 2750.63 751.373C2744.83 758.444 2736.15 778.836 2734.98 788.015Z"/><path fill="#052B48" transform="matrix(1.04579 0 0 1.0468 -980.954 -609.236)" d="M2751.34 749.881C2752.44 743.006 2751.35 736.231 2759.28 732.47C2763.14 730.637 2774.02 730.266 2778.22 731.384C2767.26 736.836 2759.99 741.005 2751.34 749.881Z"/></g></svg>