<?xml version="1.0" encoding="utf-8" ?><svg xmlns="http://www.w3.org/2000/svg" xmlns:xlink="http://www.w3.org/1999/xlink" width="698" height="984" viewBox="0 0 698 984"><clipPath id="cl_3"><rect y="-0.00024414062" width="697.99994" height="984"/></clipPath><g clip-path="url(#cl_3)"><path fill="#053353" transform="matrix(0.676357 0 0 0.67536 0 -0.000244141)" d="M462.393 16.7696L467.186 15.3808C470.069 10.8779 466.577 15.0729 467.026 9.62638C470.34 7.23666 472.455 6.47837 476.333 7.64089C478.289 9.83161 478.292 14.2887 479.138 17.9003L480.847 18.0612L485.329 13.366C488.337 13.0179 489.677 13.4111 492.705 13.9062C494.871 16.1166 494.715 17.2422 494.584 20.4998C493.14 56.469 491.128 92.478 492.349 128.489C492.487 132.548 489.943 136.742 491.429 139.988C494.365 142.551 494.86 142.844 498.447 144.377C523.386 143.433 693.172 141.713 704.234 145.474C708.494 151.678 706.384 190.548 706.551 200.422C707.677 258.173 708.112 315.934 707.856 373.695C707.914 396.701 707.962 419.767 707.908 442.778C707.878 455.582 710.256 471.341 709.268 483.769C707.005 486.452 705.353 487.996 702.771 490.388C698.566 492.07 697.619 492.105 693.07 492.513C690.413 492.615 686.647 492.56 684.21 493.332C672.619 497.459 668.944 498.537 656.767 499.217C638.046 503.112 529.347 523.276 518.774 529.579C518.344 530.824 517.539 532.175 518.184 532.891C526.181 541.765 544.101 550.657 552.997 558.543C564.159 564.885 624.25 606.753 631.351 614.072C632.85 630.01 541.489 654.944 525.908 680.171C518.862 683.481 512.43 684.06 509.178 685.54C504.511 688.811 501.527 690.073 496.319 692.468C495.51 715.041 493.134 748.939 498.698 770.778C499.492 773.892 511.888 767.855 514.102 767.273C514.888 766.76 517.793 763.387 519.244 762.133C526.817 755.584 535.544 747.775 545.023 744.182C545.593 748.626 545.596 751.392 549.923 753.519C547.02 755.52 544.145 756.85 543.099 759.984L543.19 761.21C543.33 767.095 543.299 770.675 542.775 776.515C542.172 786.299 539.03 807.521 542.377 815.965C547.491 828.867 561.76 818.536 568.51 812.243C577.051 803.033 594.748 791.887 606.203 786.677C614.869 783.823 634.935 773.472 640.376 766.309C643.816 763.469 649.232 759.857 652.975 757.234C656.576 755.251 664.829 749.755 667.991 749.75C672.369 742.185 687.791 737.874 692.456 729.864C694.032 727.533 697.128 726.212 699.677 724.793C701.328 725.992 706.899 729.586 706.957 731.54C711.655 891.304 708.232 1051.26 708.635 1211.08C708.669 1224.61 708.139 1245.59 709.784 1258.55C694.74 1259.02 677.093 1259.56 662.144 1258.53L661.412 1256.59C648.331 1259.72 636.565 1258.57 623.199 1258.68L555.994 1258.63C540.284 1258.64 524.795 1259.36 509.108 1259.66C504.286 1259.75 494.932 1256.59 491.443 1258.08C491.055 1266.95 487.948 1285.59 497.04 1290.43C493.64 1297.51 495.682 1331.74 495.288 1342.06C494.09 1373.46 498.365 1405.5 495.27 1436.66C488.817 1440.3 467.558 1451.75 461.49 1449.78C443.302 1443.91 423.131 1430.98 405.702 1423.18C385.401 1416.97 379.171 1430.43 363.894 1404.97C364.108 1405.33 314.326 1385.46 313.064 1385.8C300.185 1389.24 300.816 1392.93 287.825 1376.36C292.889 1378.22 292.598 1380.07 296.238 1383.51C300.365 1387.41 308.01 1385.12 314.46 1384.71C305.941 1379.48 295.472 1376.99 286.137 1373.18L213.068 1343.64C161.067 1322.53 109.419 1300.49 56.7813 1280.95C49.0949 1278.1 18.1696 1263.84 12.7558 1265.51C13.6235 1268.84 18.4333 1273.9 20.858 1276.79C9.29426 1270.99 14.0888 1263.58 0 1260.29L0 144.109C45.0874 143.25 95.8861 145.553 139.922 143.19C149.634 140.694 156.817 137.231 165.978 133.193C170.999 129.61 210.666 113.154 218.736 109.739C228.463 104.677 239.039 100.404 249.166 96.1082C277.289 83.2945 309.824 66.794 337.951 55.2543C345.6 52.5231 355.953 47.0106 363.801 43.6732C382.905 35.5486 401.443 27.1712 420.086 18.0597L423.081 16.6487C434.911 19.6052 448.07 12.383 462.393 16.7696ZM398.608 769.609C402.013 767.359 407.36 764.392 409.106 760.849C403.932 763.222 399.078 766.875 393.934 761.728C380.006 747.794 380.304 714.258 393.139 699.59C397.318 694.814 401.285 694.915 407.11 694.642C404.884 692.635 396.763 688.981 394.164 689.273C374.973 691.433 368.247 719.388 370.247 734.94C371.944 748.132 375.896 755.859 383.265 765.475L398.608 769.609Z"/><path fill="#1CF6F5" transform="matrix(0.676357 0 0 0.67536 0 -0.000244141)" d="M699.677 724.793C701.328 725.992 706.899 729.586 706.957 731.54C711.655 891.304 708.232 1051.26 708.635 1211.08C708.669 1224.61 708.139 1245.59 709.784 1258.55C694.74 1259.02 677.093 1259.56 662.144 1258.53L661.412 1256.59C648.331 1259.72 636.565 1258.57 623.199 1258.68L555.994 1258.63C540.284 1258.64 524.795 1259.36 509.108 1259.66C504.286 1259.75 494.932 1256.59 491.443 1258.08C493.247 1221.66 491.568 1171.98 491.537 1134.57L491.629 886.499C491.705 863.842 488.752 791.415 495.367 773.467C504.019 777.16 506.902 772.946 514.102 767.273C514.888 766.76 517.793 763.387 519.244 762.133C526.817 755.584 535.544 747.775 545.023 744.182C545.593 748.626 545.596 751.392 549.923 753.519C547.02 755.52 544.145 756.85 543.099 759.984L543.19 761.21C543.33 767.095 543.299 770.675 542.775 776.515C542.172 786.299 539.03 807.521 542.377 815.965C547.491 828.867 561.76 818.536 568.51 812.243C577.051 803.033 594.748 791.887 606.203 786.677C614.869 783.823 634.935 773.472 640.376 766.309C643.816 763.469 649.232 759.857 652.975 757.234C656.576 755.251 664.829 749.755 667.991 749.75C672.369 742.185 687.791 737.874 692.456 729.864C694.032 727.533 697.128 726.212 699.677 724.793Z"/><path fill="#053353" transform="matrix(0.676357 0 0 0.67536 0 -0.000244141)" d="M699.677 724.793C701.328 725.992 706.899 729.586 706.957 731.54C711.655 891.304 708.232 1051.26 708.635 1211.08C708.669 1224.61 708.139 1245.59 709.784 1258.55C694.74 1259.02 677.093 1259.56 662.144 1258.53L661.412 1256.59C659.974 1242.35 660.591 1217.12 660.843 1202.44C661.326 1178.62 661.583 1154.79 661.614 1130.96L661.405 865.085L661.757 792.047C661.716 784.064 661.78 763.735 660.195 756.924L658.533 755.901L652.975 757.234C656.576 755.251 664.829 749.755 667.991 749.75C672.369 742.185 687.791 737.874 692.456 729.864C694.032 727.533 697.128 726.212 699.677 724.793Z"/><path fill="#042A46" transform="matrix(0.676357 0 0 0.67536 0 -0.000244141)" d="M692.456 729.864C694.546 730.062 696.46 730.262 698.567 730.311L699.037 731.536C690.706 739.547 687.615 740.619 687.379 752.211C682.923 754.759 673.529 750.711 667.991 749.75C672.369 742.185 687.791 737.874 692.456 729.864Z"/><path fill="#1CF6F5" transform="matrix(0.676357 0 0 0.67536 0 -0.000244141)" d="M498.447 144.377C523.386 143.433 693.172 141.713 704.234 145.474C708.494 151.678 706.384 190.548 706.551 200.422C707.677 258.173 708.112 315.934 707.856 373.695C707.914 396.701 707.962 419.767 707.908 442.778C707.878 455.582 710.256 471.341 709.268 483.769C707.005 486.452 705.353 487.996 702.771 490.388C698.566 492.07 697.619 492.105 693.07 492.513C690.413 492.615 686.647 492.56 684.21 493.332C672.619 497.459 668.944 498.537 656.767 499.217C638.046 503.112 529.347 523.276 518.774 529.579C518.344 530.824 517.539 532.175 518.184 532.891C526.181 541.765 544.101 550.657 552.997 558.543C564.159 564.885 624.25 606.753 631.351 614.072C632.85 630.01 541.489 654.944 525.908 680.171C518.862 683.481 512.43 684.06 509.178 685.54C503.633 686.8 496.718 690.428 491.595 692.963C490.447 676.768 491.173 648.886 491.218 631.708L491.38 523.319L491.518 190.671C500.667 189.891 511.253 189.712 520.471 189.87C566.332 190.655 612.49 189.589 658.301 190.115C660.695 192.379 660.382 194.521 661.11 198.332C661.603 193.936 662.245 191.814 659.726 188.651C654.267 187.754 611.657 187.969 604.066 188.07C567.404 188.554 528.062 186.951 491.602 188.473C491.298 177.331 489.94 158.531 492.716 147.453C493.283 145.191 495.89 145.116 498.447 144.377Z"/><path fill="#053353" transform="matrix(0.676357 0 0 0.67536 0 -0.000244141)" d="M498.447 144.377C523.386 143.433 693.172 141.713 704.234 145.474C708.494 151.678 706.384 190.548 706.551 200.422C707.677 258.173 708.112 315.934 707.856 373.695C707.914 396.701 707.962 419.767 707.908 442.778C707.878 455.582 710.256 471.341 709.268 483.769C707.005 486.452 705.353 487.996 702.771 490.388C698.566 492.07 697.619 492.105 693.07 492.513C690.413 492.615 686.647 492.56 684.21 493.332C672.619 497.459 668.944 498.537 656.767 499.217L660.303 497.621C661.716 494.708 661.279 470.274 661.3 464.766L661.29 387.954L661.288 277.408C661.406 250.981 662.201 224.754 661.11 198.332C661.603 193.936 662.245 191.814 659.726 188.651C654.267 187.754 611.657 187.969 604.066 188.07C567.404 188.554 528.062 186.951 491.602 188.473C491.298 177.331 489.94 158.531 492.716 147.453C493.283 145.191 495.89 145.116 498.447 144.377Z"/><path fill="#056791" transform="matrix(0.676357 0 0 0.67536 0 -0.000244141)" d="M462.393 16.7696L467.186 15.3808C470.069 10.8779 466.577 15.0729 467.026 9.62638C470.34 7.23666 472.455 6.47837 476.333 7.64089C478.289 9.83161 478.292 14.2887 479.138 17.9003L480.847 18.0612L485.329 13.366C488.337 13.0179 489.677 13.4111 492.705 13.9062C494.871 16.1166 494.715 17.2422 494.584 20.4998C493.14 56.469 491.128 92.478 492.349 128.489C492.487 132.548 489.943 136.742 491.429 139.988C494.365 142.551 494.86 142.844 498.447 144.377C495.89 145.116 493.283 145.191 492.716 147.453C489.94 158.531 491.298 177.331 491.602 188.473C528.062 186.951 567.404 188.554 604.066 188.07C611.657 187.969 654.267 187.754 659.726 188.651C662.245 191.814 661.603 193.936 661.11 198.332C660.382 194.521 660.695 192.379 658.301 190.115C612.49 189.589 566.332 190.655 520.471 189.87C511.253 189.712 500.667 189.891 491.518 190.671L491.38 523.319L491.218 631.708C491.173 648.886 490.447 676.768 491.595 692.963C496.718 690.428 503.633 686.8 509.178 685.54C504.511 688.811 501.527 690.073 496.319 692.468C495.51 715.041 493.134 748.939 498.698 770.778C499.492 773.892 511.888 767.855 514.102 767.273C506.902 772.946 504.019 777.16 495.367 773.467C488.752 791.415 491.705 863.842 491.629 886.499L491.537 1134.57C491.568 1171.98 493.247 1221.66 491.443 1258.08C491.055 1266.95 487.948 1285.59 497.04 1290.43C493.64 1297.51 495.682 1331.74 495.288 1342.06C494.09 1373.46 498.365 1405.5 495.27 1436.66C488.817 1440.3 467.558 1451.75 461.49 1449.78C443.302 1443.91 423.131 1430.98 405.702 1423.18C414.904 1420.81 456.56 1442.94 463.255 1440.78C463.964 1435.61 462.105 1423.4 462.077 1416.82C461.994 1397.52 462.11 1378.25 462.187 1358.95L462.227 1095.64L462.088 373.978L462.043 144.487C461.985 104.683 460.522 55.6572 462.393 16.7696Z"/><path fill="#042A46" transform="matrix(0.676357 0 0 0.67536 0 -0.000244141)" d="M420.086 18.0597L420.455 19.2197C422.552 26.0339 423.71 26.1774 429.281 30.5208C412.684 32.8056 396.546 33.455 381.271 40.1079C383.929 41.7627 389.98 45.0676 391.46 47.3828C385.131 53.471 368.4 46.1176 352.537 54.1022L352.681 53.8056L351.608 54.1027C346.09 55.5856 343.823 55.7481 337.951 55.2543C345.6 52.5231 355.953 47.0106 363.801 43.6732C382.905 35.5486 401.443 27.1712 420.086 18.0597Z"/><path fill="#042A46" transform="matrix(0.676357 0 0 0.67536 0 -0.000244141)" d="M218.736 109.739C228.463 104.677 239.039 100.404 249.166 96.1082C250.573 117.03 233.634 112.713 218.736 109.739Z"/><path fill="#042A46" transform="matrix(0.676357 0 0 0.67536 0 -0.000244141)" d="M139.922 143.19C149.634 140.694 156.817 137.231 165.978 133.193L165.722 137.341C170.102 140.522 172.842 137.94 175.522 141.098L175.197 142.859C172.388 143.608 143.653 145.338 141.782 144.799L139.922 143.19Z"/><path fill="#1CF6F5" transform="matrix(0.676357 0 0 0.67536 0 -0.000244141)" d="M409.106 760.849C403.932 763.222 399.078 766.875 393.934 761.728C380.006 747.794 380.304 714.258 393.139 699.59C397.318 694.814 401.285 694.915 407.11 694.642C420.541 720.938 421.519 733.505 409.106 760.849Z"/><path fill="#056791" fill-opacity="0.98823529" transform="matrix(0.676357 0 0 0.67536 0 -0.000244141)" d="M383.265 765.475C375.896 755.859 371.944 748.132 370.247 734.94C368.247 719.388 374.973 691.433 394.164 689.273C396.763 688.981 404.884 692.635 407.11 694.642C401.285 694.915 397.318 694.814 393.139 699.59C380.304 714.258 380.006 747.794 393.934 761.728C399.078 766.875 403.932 763.222 409.106 760.849C407.36 764.392 402.013 767.359 398.608 769.609L383.265 765.475Z"/><path fill="#042A46" transform="matrix(0.676357 0 0 0.67536 0 -0.000244141)" d="M355.571 1393.28C359.14 1392.89 362.765 1392.28 365.584 1394.42C364.121 1397 363.358 1396.64 360.034 1398.24C356.393 1398.13 354.71 1398.37 351.49 1396.75L351.986 1395.06L355.571 1393.28Z"/><path fill="#1CF6F5" transform="matrix(0.676357 0 0 0.67536 0 -0.000244141)" d="M956.739 458.12C965.266 454.62 1022.7 439.924 1028.43 445.341C1028.53 450.965 1012.09 463.419 1011.34 470.928C1011.24 471.975 1009.74 473.06 1008.88 473.709C1001.42 478.263 994.849 490.99 989.126 498.018C930.864 569.553 873.77 642.442 818.198 716.065C816.712 718.033 813.125 718.453 810.722 718.135C798.974 711.392 786.932 700.105 776.382 691.639C768.415 685.246 759.733 679.373 752.206 672.61C750.049 670.728 744.888 668.538 741.75 666.283C734.395 660.998 726.756 653.791 719.148 649.196L710.728 642.7C706.667 641.638 708.301 641.523 704.543 642.978C701.822 645.892 701.183 647.236 699.224 650.748C691.877 665.265 682.677 686.618 675.448 699.084C671.655 706.29 668.156 716.342 661.192 718.499L659.931 718.887L659.249 714.775C660.388 710.311 659.51 703.211 659.177 698.343C660.318 666.579 657.876 635.61 658.634 605.545C657.1 604.608 654.611 602.532 653.096 601.341C650.659 600.703 648.163 598.739 646.001 597.27C630.254 588.709 607.663 569.452 591.183 559.882C586.084 556.921 582.523 553.223 576.855 550.434C573.117 547.461 570.657 546.775 572.537 542.07C578.159 538.969 594.699 535.96 601.773 534.131C630.797 526.626 661.654 521.955 690.512 514.976C693.924 514.634 704.812 511.957 708.765 511.15C723.589 508.233 738.368 505.086 753.096 501.713L888.166 472.426L926.826 464.285C936.377 462.189 947.515 460.358 956.739 458.12Z"/><path fill="#1CF6F5" transform="matrix(0.676357 0 0 0.67536 0 -0.000244141)" d="M1007.18 457.491L1008.97 458.7C1008.78 463.289 1008.33 469.286 1008.88 473.709C1001.42 478.263 994.849 490.99 989.126 498.018C930.864 569.553 873.77 642.442 818.198 716.065C816.712 718.033 813.125 718.453 810.722 718.135C798.974 711.392 786.932 700.105 776.382 691.639C768.415 685.246 759.733 679.373 752.206 672.61C750.049 670.728 744.888 668.538 741.75 666.283C734.395 660.998 726.756 653.791 719.148 649.196L710.728 642.7C709.178 640.248 709.459 641.526 709.643 638.796C717.274 629.743 981.342 471.772 1007.18 457.491Z"/><path fill="#05A2D1" transform="matrix(0.676357 0 0 0.67536 0 -0.000244141)" d="M951.672 476.601C961.828 473.571 998.001 454.966 1006.36 455.591L1007.18 457.491C981.342 471.772 717.274 629.743 709.643 638.796C709.459 641.526 709.178 640.248 710.728 642.7C706.667 641.638 708.301 641.523 704.543 642.978C701.822 645.892 701.183 647.236 699.224 650.748C691.877 665.265 682.677 686.618 675.448 699.084C671.655 706.29 668.156 716.342 661.192 718.499L659.931 718.887L659.249 714.775C660.388 710.311 659.51 703.211 659.177 698.343C660.318 666.579 657.876 635.61 658.634 605.545C657.1 604.608 654.611 602.532 653.096 601.341C658.127 601.304 658.87 603.043 663.589 605.674C679.14 601.927 731.527 575.752 747.526 568.549L951.672 476.601Z"/><path fill="#0CA0C1" transform="matrix(0.676357 0 0 0.67536 0 -0.000244141)" d="M658.634 605.545C676.432 613.062 653.418 683.131 675.448 699.084C671.655 706.29 668.156 716.342 661.192 718.499L659.931 718.887L659.249 714.775C660.388 710.311 659.51 703.211 659.177 698.343C660.318 666.579 657.876 635.61 658.634 605.545Z"/><path fill="#10E2E8" transform="matrix(0.676357 0 0 0.67536 0 -0.000244141)" d="M956.739 458.12C965.266 454.62 1022.7 439.924 1028.43 445.341C1028.53 450.965 1012.09 463.419 1011.34 470.928C1011.24 471.975 1009.74 473.06 1008.88 473.709C1008.33 469.286 1008.78 463.289 1008.97 458.7L1007.18 457.491L1006.36 455.591C998.001 454.966 961.828 473.571 951.672 476.601C956.222 471.048 998.191 452.982 1003.56 453.622C994.001 450.949 980.207 457.153 970.742 458.512C967.597 458.964 960.114 458.367 956.739 458.12Z"/><path fill="#FEFFFF" fill-opacity="0.011764706" transform="matrix(0.676357 0 0 0.67536 0 -0.000244141)" d="M646.001 597.27C648.163 598.739 650.659 600.703 653.096 601.341C654.611 602.532 657.1 604.608 658.634 605.545C657.876 635.61 660.318 666.579 659.177 698.343C656.613 697.678 657.339 698.402 656.124 696.787L654.914 696.747C651.455 702.696 654.345 707.186 650.608 712.624C646.971 717.918 643.599 721.139 643.886 727.647C646.655 732.448 651.907 732.464 656.842 730.932C661.585 726.265 656.651 720.839 659.249 714.775L659.931 718.887C666.457 726.891 674.068 718.682 678.947 714.182C679.467 719.264 678.556 718.319 681.439 721.022C687.503 722.829 696.121 721.139 699.677 724.793C697.128 726.212 694.032 727.533 692.456 729.864C687.791 737.874 672.369 742.185 667.991 749.75C664.829 749.755 656.576 755.251 652.975 757.234C649.232 759.857 643.816 763.469 640.376 766.309C640.739 761.76 641.654 756.307 636.049 755.291C629.445 757.511 627.347 761.517 623.253 766.551C622.709 767.219 616.32 766.751 615.884 769.058C613.859 779.792 601.737 775.637 593.108 784.468L592.612 786.425C597.759 787.059 601.361 786.403 606.203 786.677C594.748 791.887 577.051 803.033 568.51 812.243C568.782 808.5 569.127 807.276 568.058 803.787L566.789 803.16C561.98 806.223 557.554 809.94 551.815 807.846C549.754 803.535 553.516 784.227 550.596 774.21L549.214 773.677C546.795 775.371 546.475 775.391 543.566 776.28L542.775 776.515C543.299 770.675 543.33 767.095 543.19 761.21L546.057 762.383C547.45 764.24 548.177 765.72 550.323 766.43C551.587 763.854 550.789 764.244 552.664 763.192C553.123 766.144 553.402 767.399 554.242 770.268L556.116 770.846C562.245 765.845 559.481 759.423 562.967 753.134C561.818 751.908 553.637 752.232 550.78 752.06C556.61 748.629 578.333 738.146 580.195 732.844C578.221 730.369 578.761 731.171 574.414 730.673C574.595 727.212 574.042 727.731 575.749 725.368C579.345 724.098 579.792 724.068 582.701 721.738C581.358 721.506 580.008 721.307 578.655 721.142C574.45 720.644 572.135 720.456 568.846 723.046C565.574 725.365 565.082 722.677 560.55 727.751L560.858 729.365C564.782 730.891 570.045 730.584 574.414 730.673C571.638 732.513 549.135 742.689 545.023 744.182C535.544 747.775 526.817 755.584 519.244 762.133C517.793 763.387 514.888 766.76 514.102 767.273C511.888 767.855 499.492 773.892 498.698 770.778C493.134 748.939 495.51 715.041 496.319 692.468C501.527 690.073 504.511 688.811 509.178 685.54C512.43 684.06 518.862 683.481 525.908 680.171C531.968 677.35 538.436 672.661 542.271 667.09C542.153 671.613 541.188 673.498 544.78 676.176C550.379 676.128 552.04 673.689 551.961 668.35C549.276 665.562 550.051 666.453 545.091 665.925C555.488 658.87 580.244 649.575 585.212 645.661C586.569 649.242 585.406 648.018 588.579 649.67C599.48 649.478 604.507 645.703 612.233 638.439C611.3 635.036 612.216 636.407 609.277 634.265C616.846 629.49 639.862 623.377 642.384 614.759L640.925 612.242L643.213 610.457C646.425 612.17 643.78 615.471 646.648 618.244C649.027 614.776 644.694 604.458 646.001 597.27ZM580.324 674.731C587.921 672.3 600.745 668.609 604.768 661.339L604.598 658.98C602.749 657.436 602.578 658.09 599.245 658.387C591.648 661.454 580.976 664.583 574.434 669.661L573.873 671.642C576.543 674.435 575.949 673.592 580.324 674.731ZM506.795 708.402C506.747 703.977 507.682 694.93 507.204 692.287C505.242 691.06 505.4 691.1 503.105 690.845C503.396 695.094 503.684 704.913 505.153 708.317L506.795 708.402Z"/><path fill="#1CF6F5" fill-opacity="0.98823529" transform="matrix(0.676357 0 0 0.67536 0 -0.000244141)" d="M20.858 1276.79C18.4333 1273.9 13.6235 1268.84 12.7558 1265.51C18.1696 1263.84 49.0949 1278.1 56.7813 1280.95C109.419 1300.49 161.067 1322.53 213.068 1343.64L286.137 1373.18C295.472 1376.99 305.941 1379.48 314.46 1384.71C308.01 1385.12 300.365 1387.41 296.238 1383.51C292.598 1380.07 292.889 1378.22 287.825 1376.36C280.195 1372.39 269.441 1372.24 262.399 1368.77C243.862 1359.65 222.03 1354.63 204.676 1344.08C195.268 1347.51 188.933 1351.56 180.06 1355.02C170.207 1358.85 152.351 1360.63 143.577 1365.67C133.415 1367.1 139.096 1360.03 124.76 1365.64C101.547 1347.74 75.3054 1322.99 52.9707 1303.54C43.5207 1295.32 30.6181 1286.24 22.2078 1278.58L20.858 1276.79Z"/><defs><linearGradient id="gradient_0" gradientUnits="userSpaceOnUse" x1="644.39117" y1="494.0347" x2="648.02576" y2="548.00458"><stop offset="0" stop-color="white" stop-opacity="0"/><stop offset="1" stop-color="white" stop-opacity="0.090196081"/></linearGradient></defs><path fill="url(#gradient_0)" transform="matrix(0.676357 0 0 0.67536 0 -0.000244141)" d="M702.771 490.388C710.342 490.217 716.292 493.014 720.547 492.74C732.012 492 749.408 483.55 760.939 488.516C763.578 489.653 764.815 490.127 767.732 490.43C761.86 491.531 750.519 487.864 746.609 491.453C737.681 499.647 725.158 493.023 712.976 498.287C703.758 514.419 700.568 492.369 685.816 510.176C683.919 512.466 673.267 506.2 667.616 512.506L667.967 513.835C673.933 515.982 683.27 514.006 690.512 514.976C661.654 521.955 630.797 526.626 601.773 534.131C594.699 535.96 578.159 538.969 572.537 542.07C570.657 546.775 573.117 547.461 576.855 550.434C570.113 550.507 570.094 551.458 564.981 546.695C559.388 550.399 567.241 559.332 552.997 558.543C544.101 550.657 526.181 541.765 518.184 532.891C517.539 532.175 518.344 530.824 518.774 529.579C529.347 523.276 638.046 503.112 656.767 499.217C668.944 498.537 672.619 497.459 684.21 493.332C689.472 494.446 702.601 498.923 707.047 495.018C705.258 493.817 698.351 495.001 693.743 494.202L693.07 492.513C697.619 492.105 698.566 492.07 702.771 490.388Z"/><path fill="#1CF6F5" fill-opacity="0.98823529" transform="matrix(0.676357 0 0 0.67536 0 -0.000244141)" d="M661.412 1256.59L662.144 1258.53C668.647 1265.54 684.194 1259.81 691.098 1262.66C686.535 1265.4 652.326 1261.95 645.837 1270.14C630.536 1272.77 616.66 1272.07 601.51 1273.61C594.515 1274.32 580.967 1281.53 573.256 1281.39C558.371 1281.13 547.322 1277.79 531.862 1278.3C521.043 1286.46 509.447 1286.3 497.04 1290.43C487.948 1285.59 491.055 1266.95 491.443 1258.08C494.932 1256.59 504.286 1259.75 509.108 1259.66C524.795 1259.36 540.284 1258.64 555.994 1258.63L623.199 1258.68C636.565 1258.57 648.331 1259.72 661.412 1256.59Z"/><defs><linearGradient id="gradient_1" gradientUnits="userSpaceOnUse" x1="609.47375" y1="569.25555" x2="593.50885" y2="586.08923"><stop offset="0" stop-color="white" stop-opacity="0"/><stop offset="1" stop-color="white" stop-opacity="0.11764706"/></linearGradient></defs><path fill="url(#gradient_1)" transform="matrix(0.676357 0 0 0.67536 0 -0.000244141)" d="M552.997 558.543C567.241 559.332 559.388 550.399 564.981 546.695C570.094 551.458 570.113 550.507 576.855 550.434C582.523 553.223 586.084 556.921 591.183 559.882C607.663 569.452 630.254 588.709 646.001 597.27C644.694 604.458 649.027 614.776 646.648 618.244C643.78 615.471 646.425 612.17 643.213 610.457L640.925 612.242L642.384 614.759C639.862 623.377 616.846 629.49 609.277 634.265C601.416 638.281 593.192 641.827 585.212 645.661C580.244 649.575 555.488 658.87 545.091 665.925L542.271 667.09C538.436 672.661 531.968 677.35 525.908 680.171C541.489 654.944 632.85 630.01 631.351 614.072C624.25 606.753 564.159 564.885 552.997 558.543Z"/><path fill="#056791" fill-opacity="0.98823529" transform="matrix(0.676357 0 0 0.67536 0 -0.000244141)" d="M719.148 649.196C726.756 653.791 734.395 660.998 741.75 666.283C744.888 668.538 750.049 670.728 752.206 672.61C745.603 670.421 743.092 669.193 736.51 672.709C716.79 683.243 696.988 702.502 678.947 714.182C674.068 718.682 666.457 726.891 659.931 718.887L661.192 718.499C668.156 716.342 671.655 706.29 675.448 699.084C682.677 686.618 691.877 665.265 699.224 650.748L700.528 654.11C705.5 655.56 708.265 651.112 713.425 653.114C715.999 654.113 721.383 656.74 723.715 656.38C724.007 653.414 721.257 651.481 719.148 649.196Z"/><path fill="#1CF6F5" fill-opacity="0.90980393" transform="matrix(0.676357 0 0 0.67536 0 -0.000244141)" d="M662.144 1258.53C677.093 1259.56 694.74 1259.02 709.784 1258.55C716.478 1262.9 724.308 1265.38 731.6 1268.65C754.62 1278.99 777.8 1289.21 799.955 1301.33C805.301 1304.26 824.129 1309.74 826.268 1314.53L825.507 1315.9C809.416 1318.57 733.352 1273.42 712.032 1269.46C691.402 1265.63 696.668 1270.93 679.624 1271.94C673.674 1272.3 654.888 1270.03 645.837 1270.14C652.326 1261.95 686.535 1265.4 691.098 1262.66C684.194 1259.81 668.647 1265.54 662.144 1258.53Z"/><path fill="#042A46" fill-opacity="0.98823529" transform="matrix(0.676357 0 0 0.67536 0 -0.000244141)" d="M452.662 0L474.015 0C484.299 7.65327 485.974 1.1093 492.705 13.9062C489.677 13.4111 488.337 13.0179 485.329 13.366L480.847 18.0612L479.138 17.9003C478.292 14.2887 478.289 9.83161 476.333 7.64089C472.455 6.47837 470.34 7.23666 467.026 9.62638C466.577 15.0729 470.069 10.8779 467.186 15.3808L462.393 16.7696C448.07 12.383 434.911 19.6052 423.081 16.6487C429.987 12.9612 449.774 5.28727 452.662 0Z"/><path fill="#1CF6F5" fill-opacity="0.96470588" transform="matrix(0.676357 0 0 0.67536 0 -0.000244141)" d="M124.76 1365.64C139.096 1360.03 133.415 1367.1 143.577 1365.67C143.185 1369.93 142.413 1370.29 144.876 1373.62C150.581 1381.34 160.981 1386.72 167.037 1393.2C169.497 1396.06 170.795 1397.53 172.84 1400.75L172.018 1402.35C169.27 1402.91 168.892 1402.89 166.057 1402.91C155.683 1394.65 139.597 1382.29 131.045 1371.88C127.826 1367.96 129.602 1368.82 124.76 1365.64Z"/><defs><linearGradient id="gradient_2" gradientUnits="userSpaceOnUse" x1="11.342393" y1="1291.5525" x2="6.9015107" y2="1270.189"><stop offset="0" stop-color="white" stop-opacity="0"/><stop offset="1" stop-color="white" stop-opacity="0.043137256"/></linearGradient></defs><path fill="url(#gradient_2)" transform="matrix(0.676357 0 0 0.67536 0 -0.000244141)" d="M0 1260.29C14.0888 1263.58 9.29426 1270.99 20.858 1276.79L22.2078 1278.58C17.6621 1278.43 14.0038 1277.84 9.93938 1279.66L9.46951 1280.94C13.0042 1284.39 18.4281 1286.41 19.4683 1289.18C14.9972 1292.38 5.38597 1291.27 0 1290.92L0 1260.29Z"/><path fill="#1CF6F5" fill-opacity="0.98431373" transform="matrix(0.676357 0 0 0.67536 0 -0.000244141)" d="M574.414 730.673C578.761 731.171 578.221 730.369 580.195 732.844C578.333 738.146 556.61 748.629 550.78 752.06L549.923 753.519C545.596 751.392 545.593 748.626 545.023 744.182C549.135 742.689 571.638 732.513 574.414 730.673Z"/><path fill="#053353" fill-opacity="0.97647059" transform="matrix(0.676357 0 0 0.67536 0 -0.000244141)" d="M699.224 650.748C701.183 647.236 701.822 645.892 704.543 642.978C708.301 641.523 706.667 641.638 710.728 642.7L719.148 649.196C721.257 651.481 724.007 653.414 723.715 656.38C721.383 656.74 715.999 654.113 713.425 653.114C708.265 651.112 705.5 655.56 700.528 654.11L699.224 650.748Z"/><path fill="#1CF6F5" fill-opacity="0.86666667" transform="matrix(0.676357 0 0 0.67536 0 -0.000244141)" d="M167.037 1393.2C172.728 1396.74 184.313 1404.99 186.093 1411.7L185.146 1412.75C175.331 1411.87 173.62 1407.29 166.057 1402.91C168.892 1402.89 169.27 1402.91 172.018 1402.35L172.84 1400.75C170.795 1397.53 169.497 1396.06 167.037 1393.2Z"/></g></svg>